<svg version="1.1" xmlns="http://www.w3.org/2000/svg" width="500" height="500">
<path d="M0 0 C0.97066406 0.37769531 1.94132812 0.75539063 2.94140625 1.14453125 C19.09871007 7.57733264 37.51077821 16.85037223 51 28 C51 28.66 51 29.32 51 30 C51.680625 30.226875 52.36125 30.45375 53.0625 30.6875 C59.06611364 33.36996567 63.39811649 37.36402847 68 42 C69.88763165 43.73811627 71.78389881 45.46688851 73.6875 47.1875 C90.12415469 62.19035665 103.79317001 78.96598794 115.6875 97.75 C116.1218335 98.42957764 116.55616699 99.10915527 117.00366211 99.80932617 C120 104.63393803 120 104.63393803 120 108 C120.66 108 121.32 108 122 108 C127.30683744 118.07093015 131.68897047 128.47432725 136 139 C136.33797607 139.80526123 136.67595215 140.61052246 137.02416992 141.44018555 C139.47865923 147.38290985 141.40033092 153.35384232 143.0625 159.5625 C143.31999023 160.51777588 143.57748047 161.47305176 143.84277344 162.45727539 C146.06896518 170.90989126 147.71788027 179.35851301 149 188 C149.19335938 189.27230469 149.38671875 190.54460937 149.5859375 191.85546875 C150.82873685 200.54605841 151.67122993 209.22670972 152 218 C152.04302246 219.13187744 152.04302246 219.13187744 152.08691406 220.28662109 C152.96660438 247.79643044 149.21761444 276.9858437 140 303 C139.61714844 304.11761719 139.23429687 305.23523438 138.83984375 306.38671875 C138.20755859 308.20623047 138.20755859 308.20623047 137.5625 310.0625 C137.17191406 311.18785156 136.78132813 312.31320312 136.37890625 313.47265625 C135.11140626 316.71501458 133.68351475 319.74112546 132.09936523 322.83374023 C130.06267188 326.84697145 128.16945639 330.92975208 126.25 335 C125.83878906 335.87011719 125.42757813 336.74023438 125.00390625 337.63671875 C124.00180808 339.75743812 123.00052122 341.87853631 122 344 C121.34 344 120.68 344 120 344 C119.91363281 344.69480469 119.82726562 345.38960938 119.73828125 346.10546875 C116.04947314 360.56793862 100.80512778 376.3740307 90.7421875 387.08203125 C88.83550203 389.08549107 88.83550203 389.08549107 87 392 C86.34 392 85.68 392 85 392 C84.690625 392.804375 84.690625 392.804375 84.375 393.625 C82.46749574 396.91978009 79.95180616 399.59363628 77 402 C76.34 402 75.68 402 75 402 C74.67 402.99 74.34 403.98 74 405 C71.84765625 406.98046875 71.84765625 406.98046875 69.0625 409.1875 C68.06992187 409.97898437 67.07734375 410.77046875 66.0546875 411.5859375 C65.04664063 412.38257813 64.03859375 413.17921875 63 414 C62.09507812 414.73476563 61.19015625 415.46953125 60.2578125 416.2265625 C48.21488764 426 48.21488764 426 45 426 C45 426.66 45 427.32 45 428 C42.59004706 429.64220655 40.19685209 431.15026599 37.6875 432.625 C36.99720703 433.04523438 36.30691406 433.46546875 35.59570312 433.8984375 C30.38447392 437 30.38447392 437 27 437 C27 437.66 27 438.32 27 439 C26.46632813 439.25168945 25.93265625 439.50337891 25.3828125 439.76269531 C22.92142883 440.92418735 20.46071201 442.08708573 18 443.25 C16.74123047 443.84361328 16.74123047 443.84361328 15.45703125 444.44921875 C11.56560265 446.28935165 7.69302868 448.14771489 3.86328125 450.11328125 C0.06448854 452.02171103 -3.79972672 453.54202541 -7.8125 454.9375 C-8.53751709 455.19055908 -9.26253418 455.44361816 -10.00952148 455.7043457 C-51.33655149 469.79761722 -96.10846763 473.00676587 -138.91845703 464.41650391 C-140.31368652 464.13732709 -141.71055877 463.86624582 -143.10888672 463.60302734 C-161.11540426 460.20083634 -178.62271547 454.22109395 -195 446 C-196.10988281 445.46890625 -197.21976563 444.9378125 -198.36328125 444.390625 C-212.93031491 437.32585673 -226.23648586 428.73407254 -239.31787109 419.21972656 C-240.69580182 418.22057679 -242.08989258 417.24374801 -243.48828125 416.2734375 C-244.23658203 415.64308594 -244.23658203 415.64308594 -245 415 C-245 414.34 -245 413.68 -245 413 C-245.8971875 412.566875 -245.8971875 412.566875 -246.8125 412.125 C-249 411 -249 411 -252 409 C-252 408.34 -252 407.68 -252 407 C-252.57975586 406.74476563 -253.15951172 406.48953125 -253.75683594 406.2265625 C-256.23015312 404.87415223 -257.89602109 403.36267476 -259.890625 401.375 C-260.59960938 400.66859375 -261.30859375 399.9621875 -262.0390625 399.234375 C-262.76867187 398.49703125 -263.49828125 397.7596875 -264.25 397 C-264.99507813 396.26265625 -265.74015625 395.5253125 -266.5078125 394.765625 C-267.21164062 394.05921875 -267.91546875 393.3528125 -268.640625 392.625 C-269.60790527 391.65433594 -269.60790527 391.65433594 -270.59472656 390.6640625 C-272 389 -272 389 -272 387 C-272.66 387 -273.32 387 -274 387 C-278 382.52941176 -278 382.52941176 -278 380 C-278.66 380 -279.32 380 -280 380 C-281.74019383 377.89151118 -283.34846849 375.78180236 -284.9375 373.5625 C-285.42114014 372.89379883 -285.90478027 372.22509766 -286.40307617 371.53613281 C-317.45928306 328.16081331 -334.25798668 278.496385 -334.1875 225.0625 C-334.18722809 224.28953583 -334.18695618 223.51657166 -334.18667603 222.72018433 C-334.16236305 207.68445665 -334.06215183 192.5372005 -329.78125 177.99609375 C-329.07973865 175.3057977 -328.59966291 172.68522977 -328.14453125 169.9453125 C-327.01717084 163.59522789 -325.17503689 157.56480299 -323.1875 151.4375 C-322.85685547 150.37853516 -322.52621094 149.31957031 -322.18554688 148.22851562 C-320.26406984 142.24280119 -318.01651449 136.69485269 -315.10424805 131.1237793 C-313.84395851 128.69988836 -312.79349305 126.2363684 -311.8125 123.6875 C-311.50957031 122.90761719 -311.20664062 122.12773437 -310.89453125 121.32421875 C-310.45173828 120.17373047 -310.45173828 120.17373047 -310 119 C-309.33534427 117.33253036 -308.66920731 115.66564816 -308 114 C-307.34 114 -306.68 114 -306 114 C-305.87560547 113.42056641 -305.75121094 112.84113281 -305.62304688 112.24414062 C-302.381429 100.56821917 -293.41753799 89.3252635 -286 80 C-285.09148905 78.7956483 -284.18669339 77.58848715 -283.28515625 76.37890625 C-282.37763202 75.16924993 -281.47008051 73.95961409 -280.5625 72.75 C-280.13710938 72.17596436 -279.71171875 71.60192871 -279.2734375 71.01049805 C-278.22947803 69.63650042 -277.12004333 68.31271619 -276 67 C-275.34 67 -274.68 67 -274 67 C-273.731875 66.41734375 -273.46375 65.8346875 -273.1875 65.234375 C-271.98519009 62.97213399 -270.66174087 61.19423682 -269 59.25 C-268.484375 58.63640625 -267.96875 58.0228125 -267.4375 57.390625 C-266 56 -266 56 -264 56 C-263.505 54.515 -263.505 54.515 -263 53 C-262.34 53 -261.68 53 -261 53 C-261 52.34 -261 51.68 -261 51 C-259.35546875 49.30859375 -259.35546875 49.30859375 -257.1875 47.4375 C-256.47980469 46.81746094 -255.77210938 46.19742188 -255.04296875 45.55859375 C-253 44 -253 44 -250 43 C-250 42.34 -250 41.68 -250 41 C-238.76840391 30.22738741 -224.29277423 21.94941646 -211 14 C-210.11699219 13.4328125 -209.23398438 12.865625 -208.32421875 12.28125 C-206 11 -206 11 -203 11 C-203 10.34 -203 9.68 -203 9 C-201.97519531 8.60167969 -200.95039063 8.20335938 -199.89453125 7.79296875 C-198.53376242 7.25804583 -197.17309043 6.72287651 -195.8125 6.1875 C-195.13896484 5.92646484 -194.46542969 5.66542969 -193.77148438 5.39648438 C-190.91307386 4.26706363 -188.2808632 3.17548069 -185.66796875 1.54296875 C-181.50664506 -0.86365329 -177.03254403 -2.306721 -172.5 -3.875 C-171.4891333 -4.22578613 -170.4782666 -4.57657227 -169.43676758 -4.93798828 C-159.44470014 -8.32183362 -149.31795563 -10.83768053 -139 -13 C-138.17193848 -13.1767627 -137.34387695 -13.35352539 -136.49072266 -13.53564453 C-91.67137693 -22.85537358 -42.15521116 -17.19845809 0 0 Z M-136 77 C-137.44632813 77.47953125 -137.44632813 77.47953125 -138.921875 77.96875 C-141.64104613 78.92122802 -144.3201972 79.94218311 -147 81 C-147.96421875 81.36867188 -148.9284375 81.73734375 -149.921875 82.1171875 C-157.39340919 85.07870235 -164.13860959 88.83735676 -171 93 C-172.28872327 93.73435628 -173.5798693 94.46450396 -174.875 95.1875 C-178.03619217 97.02099146 -181.05104191 98.84222579 -184 101 C-184 101.66 -184 102.32 -184 103 C-184.66 103.185625 -185.32 103.37125 -186 103.5625 C-190.26905268 105.60808774 -193.74163706 108.57184643 -197 112 C-197 112.66 -197 113.32 -197 114 C-197.61875 114.2475 -198.2375 114.495 -198.875 114.75 C-201.35068687 116.20628639 -201.95125002 117.37812506 -203 120 C-203.66 120 -204.32 120 -205 120 C-206.60634015 121.73391951 -208.1375287 123.538091 -209.625 125.375 C-210.44226563 126.37273437 -211.25953125 127.37046875 -212.1015625 128.3984375 C-214.19648969 130.73249885 -214.19648969 130.73249885 -214 133 C-214.66 133 -215.32 133 -216 133 C-217.32967768 134.88371004 -218.562695 136.83595931 -219.75 138.8125 C-220.10416992 139.4005542 -220.45833984 139.9886084 -220.82324219 140.59448242 C-224.04111959 145.97768085 -227.07617804 151.45178364 -230 157 C-230.34546875 157.62648438 -230.6909375 158.25296875 -231.046875 158.8984375 C-237.25513941 170.55165513 -244.65539164 187.61488602 -244 201 C-235.07690787 199.97399986 -226.31288867 198.32002756 -217.52148438 196.49560547 C-215.33457949 196.06576262 -213.15895638 195.72229155 -210.953125 195.41015625 C-207.36911927 194.71234868 -204.9990816 194.09518529 -202 192 C-199.51604767 187.49880872 -198.13257369 182.93371314 -196.68017578 178.02587891 C-194.97386385 172.94369068 -191.85803156 168.49564006 -189 164 C-188.39800781 163.00742188 -187.79601562 162.01484375 -187.17578125 160.9921875 C-184.13979096 156.05294082 -181.18372255 152.04304182 -177 148 C-176.01449999 146.97492637 -175.03290091 145.94609193 -174.0546875 144.9140625 C-167.54516081 138.13700703 -161.24226211 132.63767609 -153 128 C-151.90945312 127.33355469 -150.81890625 126.66710937 -149.6953125 125.98046875 C-131.71416134 115.07950649 -112.12358562 110.19153084 -91.25 110.4375 C-90.46385315 110.44209229 -89.6777063 110.44668457 -88.86773682 110.45141602 C-76.37572671 110.55154221 -64.7670133 111.48655306 -53 116 C-52.21512207 116.3000293 -51.43024414 116.60005859 -50.62158203 116.90917969 C-40.33726307 120.96339584 -30.56808698 125.84274759 -21.8359375 132.69921875 C-20.10302193 134.19270456 -20.10302193 134.19270456 -18 134 C-18 134.66 -18 135.32 -18 136 C-17.34 136 -16.68 136 -16 136 C-16 136.66 -16 137.32 -16 138 C-14.30910787 139.63261874 -14.30910787 139.63261874 -12.1875 141.3125 C-9.06609608 143.95326296 -6.80988139 146.26711964 -5 150 C-5.58265625 150.09796875 -6.1653125 150.1959375 -6.765625 150.296875 C-12.80199497 151.39784814 -18.45522965 153.05158325 -24.23828125 155.09765625 C-26.81881414 155.94080066 -29.32951264 156.52816526 -32 157 C-30.90234298 158.09765702 -29.80394073 159.1945733 -28.703125 160.2890625 C-27.37018475 161.62811716 -26.04980812 162.97968059 -24.734375 164.3359375 C-23.93515625 165.15320313 -23.1359375 165.97046875 -22.3125 166.8125 C-21.16201172 167.99779297 -21.16201172 167.99779297 -19.98828125 169.20703125 C-18.1986717 171.22322996 -18.1986717 171.22322996 -16 171 C-16 171.66 -16 172.32 -16 173 C-15.34 173 -14.68 173 -14 173 C-14 173.66 -14 174.32 -14 175 C-12.32040162 176.77671697 -12.32040162 176.77671697 -10.1875 178.5625 C-9.12595703 179.49255859 -9.12595703 179.49255859 -8.04296875 180.44140625 C-5.98726532 182.18424754 -5.98726532 182.18424754 -3 183 C-3 183.66 -3 184.32 -3 185 C-1.38200498 186.63675508 -1.38200498 186.63675508 0.6875 188.3125 C3.19802294 190.43644684 5.60823421 192.55501344 7.875 194.9375 C9.74563699 197.23215846 9.74563699 197.23215846 12 197 C12 197.66 12 198.32 12 199 C13.67959838 200.77671697 13.67959838 200.77671697 15.8125 202.5625 C16.52019531 203.18253906 17.22789062 203.80257812 17.95703125 204.44140625 C20.01273468 206.18424754 20.01273468 206.18424754 23 207 C23.4021875 207.84498047 23.4021875 207.84498047 23.8125 208.70703125 C25.53638302 212.03571326 28.23868951 214.22902191 31 216.6875 C31.5465625 217.18572266 32.093125 217.68394531 32.65625 218.19726562 C35.61256256 220.90118464 35.61256256 220.90118464 39 223 C40.06418492 218.31288124 41.12643408 213.6253257 42.1875 208.9375 C42.34650787 208.23527313 42.50551575 207.53304626 42.66934204 206.80953979 C44.722351 197.73694036 46.73630888 188.65764388 48.6875 179.5625 C50.31825014 171.97510973 52.10090884 164.44786868 54.0234375 156.9296875 C56.27209051 148.02209054 58.23950962 139.01584468 60 130 C51.91693875 131.70169711 43.96899594 133.83713681 36 136 C35.34 135.01 34.68 134.02 34 133 C33.34 133 32.68 133 32 133 C31.72599365 132.41049561 31.4519873 131.82099121 31.16967773 131.21362305 C29.2990838 127.67351133 26.66443799 124.83520323 24.0625 121.8125 C23.52431641 121.17119141 22.98613281 120.52988281 22.43164062 119.86914062 C21.90892578 119.25876953 21.38621094 118.64839844 20.84765625 118.01953125 C20.37336182 117.46370361 19.89906738 116.90787598 19.41040039 116.33520508 C17.92434192 114.74002563 17.92434192 114.74002563 15 114 C15 113.34 15 112.68 15 112 C13.26608049 110.39365985 11.461909 108.8624713 9.625 107.375 C8.12839844 106.14910156 8.12839844 106.14910156 6.6015625 104.8984375 C4.26750115 102.80351031 4.26750115 102.80351031 2 103 C2 102.34 2 101.68 2 101 C0.11628996 99.67032232 -1.83595931 98.437305 -3.8125 97.25 C-4.4005542 96.89583008 -4.9886084 96.54166016 -5.59448242 96.17675781 C-10.97768085 92.95888041 -16.45178364 89.92382196 -22 87 C-22.62648438 86.65453125 -23.25296875 86.3090625 -23.8984375 85.953125 C-30.92653001 82.20890104 -38.49323434 79.60386965 -46 77 C-47.64162109 76.42185547 -47.64162109 76.42185547 -49.31640625 75.83203125 C-76.47417149 67.46346368 -109.1622826 68.0990485 -136 77 Z M-122 181 C-123.13501953 181.67869141 -123.13501953 181.67869141 -124.29296875 182.37109375 C-134.9159035 189.51666064 -141.91363579 201.80695622 -145 214 C-147.2219821 231.25619969 -145.0354234 246.2496222 -134.2578125 260.328125 C-125.57404337 270.60441926 -114.16956558 278.55552562 -100.58984375 280.484375 C-88.65172945 281.35260149 -78.21757781 280.18282562 -67 276 C-67 275.34 -67 274.68 -67 274 C-66.44957031 273.90589844 -65.89914062 273.81179688 -65.33203125 273.71484375 C-54.08218907 270.26639966 -47.48237579 259.83063351 -42.25 250.0625 C-35.04296973 234.74458749 -35.63349698 219.76655085 -41 204 C-41.63075762 202.64930868 -42.28072748 201.30570642 -43 200 C-43.66 200 -44.32 200 -45 200 C-45.103125 199.42894531 -45.20625 198.85789063 -45.3125 198.26953125 C-47.63996865 190.58623985 -55.32789239 184.02136718 -62 180 C-62.99 180 -63.98 180 -65 180 C-65 179.34 -65 178.68 -65 178 C-67.06049855 177.18243762 -69.12348853 176.37115266 -71.1875 175.5625 C-72.33605469 175.11003906 -73.48460937 174.65757812 -74.66796875 174.19140625 C-91.22566043 168.27101239 -107.4859055 172.31367407 -122 181 Z M-218 231 C-220.25221171 236.78665605 -222.13159578 242.58677442 -223.8125 248.5625 C-224.06894287 249.46508545 -224.32538574 250.3676709 -224.58959961 251.29760742 C-226.7825661 259.08093407 -228.80359838 266.90548659 -230.81298828 274.73779297 C-232.62561159 281.73649983 -234.69880389 288.61085459 -236.91015625 295.4921875 C-238.21140786 299.68044538 -239.2851819 303.89691488 -240.30859375 308.16015625 C-241.4383638 312.80051122 -242.72279109 317.39842463 -244 322 C-237.51049051 320.77962764 -231.13788289 319.30554385 -224.76171875 317.5859375 C-219.66543912 316.50469005 -219.66543912 316.50469005 -217 317 C-214.96873668 318.96535212 -213.33786606 320.78684138 -211.625 323 C-210.648608 324.20326337 -209.672046 325.40638882 -208.6953125 326.609375 C-207.79618383 327.73903355 -206.89767663 328.86918725 -206 330 C-200.66145014 336.60119443 -194.70569778 341.79531272 -188 347 C-187.03707031 347.75539063 -186.07414062 348.51078125 -185.08203125 349.2890625 C-150.08881621 376.19269679 -108.65884354 384.69001178 -65.296875 379.6328125 C-57.83277406 378.61559911 -50.99174972 376.77180449 -44 374 C-42.71516404 373.53069061 -41.42869746 373.06582089 -40.140625 372.60546875 C-28.0477033 368.22143925 -16.94211783 362.78850454 -6 356 C-5.20851563 355.53207031 -4.41703125 355.06414062 -3.6015625 354.58203125 C-2.86679687 354.14246094 -2.13203125 353.70289063 -1.375 353.25 C-0.72273437 352.86328125 -0.07046875 352.4765625 0.6015625 352.078125 C1.06304687 351.72234375 1.52453125 351.3665625 2 351 C2 350.34 2 349.68 2 349 C2.5259375 348.77828125 3.051875 348.5565625 3.59375 348.328125 C12.57159922 343.37281861 20.26457414 335.08984087 26.875 327.375 C27.39255859 326.77139648 27.91011719 326.16779297 28.44335938 325.54589844 C31.12942868 322.65805517 31.12942868 322.65805517 32 319 C32.66 319 33.32 319 34 319 C35.5330573 316.7139676 36.93869312 314.44209458 38.3125 312.0625 C38.71911865 311.36809814 39.1257373 310.67369629 39.54467773 309.95825195 C40.34904183 308.58065178 41.14999438 307.20105312 41.94726562 305.81933594 C42.75915147 304.41623452 43.5871695 303.02245956 44.421875 301.6328125 C57.87900706 278.77338082 57.87900706 278.77338082 61.51245117 253.87890625 C61.34334229 253.25886719 61.1742334 252.63882812 61 252 C57.70660175 252.59495698 54.4156803 253.20270412 51.125 253.8125 C50.2071875 253.97814453 49.289375 254.14378906 48.34375 254.31445312 C42.85317441 255.33910279 37.60108011 256.63277409 32.30297852 258.40844727 C29.7461739 259.06519884 27.44517622 259.11795029 24.8125 259.125 C22.22100996 259.46306792 22.22100996 259.46306792 20 261 C18.23856191 264.2088807 16.97904852 267.31818249 15.76635742 270.75878906 C12.71484072 279.34347223 7.96920335 286.67716414 3.01220703 294.27685547 C1.83838013 296.13845914 1.83838013 296.13845914 1 299 C0.34 299 -0.32 299 -1 299 C-1 299.66 -1 300.32 -1 301 C-1.66 301 -2.32 301 -3 301 C-4.60059293 302.62092592 -4.60059293 302.62092592 -6.25 304.6875 C-8.50075728 307.35349133 -10.70049545 309.71010091 -13.4375 311.875 C-14.283125 312.57625 -15.12875 313.2775 -16 314 C-16 314.66 -16 315.32 -16 316 C-16.66 316 -17.32 316 -18 316 C-18 316.66 -18 317.32 -18 318 C-18.74636719 318.27585937 -19.49273437 318.55171875 -20.26171875 318.8359375 C-22.76831612 319.90150956 -24.62559376 321.03047366 -26.8125 322.625 C-51.35103879 339.24132842 -81.60275445 344.90799692 -110.81054688 340.1262207 C-113.90441219 339.5260638 -116.94901646 338.78800237 -120 338 C-121.22976562 337.69835937 -122.45953125 337.39671875 -123.7265625 337.0859375 C-130.25361252 335.36682154 -136.11212703 333.24499803 -142.01171875 329.953125 C-144.08338397 328.78386487 -144.08338397 328.78386487 -147 329 C-147 328.34 -147 327.68 -147 327 C-147.72445312 326.62488281 -148.44890625 326.24976563 -149.1953125 325.86328125 C-154.66042099 322.97041716 -159.34984014 320.05398552 -164 316 C-164.66 316 -165.32 316 -166 316 C-166 315.34 -166 314.68 -166 314 C-166.66 314 -167.32 314 -168 314 C-168 313.34 -168 312.68 -168 312 C-168.969375 311.195625 -169.93875 310.39125 -170.9375 309.5625 C-174 307 -174 307 -175 304 C-173.989375 303.9175 -172.97875 303.835 -171.9375 303.75 C-165.15059716 302.92771702 -158.56902694 300.83898541 -152 299 C-153.58452631 295.06184982 -156.31504321 292.45645895 -159.3125 289.5625 C-159.78623047 289.09779297 -160.25996094 288.63308594 -160.74804688 288.15429688 C-162.16266386 286.76677242 -163.58131512 285.38336493 -165 284 C-168.71543389 280.35091314 -172.11736524 276.57096542 -175.44921875 272.57421875 C-175.96097656 272.05472656 -176.47273438 271.53523438 -177 271 C-177.66 271 -178.32 271 -179 271 C-179 270.34 -179 269.68 -179 269 C-179.66 269 -180.32 269 -181 269 C-181 268.34 -181 267.68 -181 267 C-182.65385233 265.65080468 -184.321702 264.31866272 -186 263 C-186.66 262.01 -187.32 261.02 -188 260 C-188.66 260 -189.32 260 -190 260 C-190.66 258.68 -191.32 257.36 -192 256 C-192.66 256 -193.32 256 -194 256 C-194.23195068 255.44280273 -194.46390137 254.88560547 -194.70288086 254.31152344 C-196.34101448 251.39229717 -198.38104994 249.37718305 -200.75390625 247.015625 C-201.21482162 246.55516785 -201.675737 246.09471069 -202.15061951 245.62030029 C-203.12075118 244.65317817 -204.09330061 243.68847596 -205.06811523 242.72607422 C-206.56622805 241.24631763 -208.0560843 239.75861398 -209.54492188 238.26953125 C-213.30413534 233.70570949 -213.30413534 233.70570949 -218 231 Z " fill="#01BE62" transform="translate(341,24)"/>
<path d="M0 0 C0.33 0 0.66 0 1 0 C0.85930804 2.12534659 0.71229079 4.25027529 0.5625 6.375 C0.48128906 7.55835938 0.40007813 8.74171875 0.31640625 9.9609375 C0 13 0 13 -1 15 C-1.22858114 17.0374763 -1.41024278 19.08040303 -1.5625 21.125 C-1.64628906 22.22070312 -1.73007813 23.31640625 -1.81640625 24.4453125 C-1.87699219 25.28835937 -1.93757812 26.13140625 -2 27 C-2.66 27 -3.32 27 -4 27 C-3.98839844 27.556875 -3.97679687 28.11375 -3.96484375 28.6875 C-3.95582031 29.450625 -3.94679688 30.21375 -3.9375 31 C-3.92589844 31.7425 -3.91429687 32.485 -3.90234375 33.25 C-4 36 -4 36 -4.49780273 39.59863281 C-5.07632916 44.13409964 -5.14438014 48.60455553 -5.1328125 53.171875 C-5.13424759 54.43913422 -5.13424759 54.43913422 -5.13571167 55.73199463 C-5.13638766 57.50345942 -5.13457423 59.27492678 -5.13037109 61.04638672 C-5.1249876 63.7562411 -5.13034955 66.46593177 -5.13671875 69.17578125 C-5.13605839 70.9036462 -5.1347781 72.63151104 -5.1328125 74.359375 C-5.13483673 75.16671082 -5.13686096 75.97404663 -5.13894653 76.80584717 C-5.12398192 80.38865205 -4.89930911 83.5481548 -4 87 C-3.72655478 89.54663127 -3.49587427 92.07243018 -3.3125 94.625 C-3.25255859 95.305625 -3.19261719 95.98625 -3.13085938 96.6875 C-3.00341379 98.45427984 -2.99377743 100.22864045 -3 102 C-3.99 102.99 -3.99 102.99 -5 104 C-5.31714584 102.06325505 -5.62840532 100.12554618 -5.9375 98.1875 C-6.11152344 97.10855469 -6.28554687 96.02960938 -6.46484375 94.91796875 C-7.91588259 84.29466977 -8.20162152 73.76760888 -8.1875 63.0625 C-8.18722809 62.28953583 -8.18695618 61.51657166 -8.18667603 60.72018433 C-8.16207823 45.50831973 -7.87848101 30.43281387 -3.7265625 15.69140625 C-2.70197691 11.89603277 -2.07004855 8.05555701 -1.4296875 4.1796875 C-1 2 -1 2 0 0 Z " fill="#44BE87" transform="translate(15,186)"/>
<path d="M0 0 C-1.61929544 3.23859087 -4.74666411 3.67660913 -8 5 C-9.34013497 5.65288627 -10.67741528 6.31225595 -12 7 C-12 8.98 -12 10.96 -12 13 C-9.69 13 -7.38 13 -5 13 C-5 13.66 -5 14.32 -5 15 C-4.34 15 -3.68 15 -3 15 C-3 16.65 -3 18.3 -3 20 C-1.68 20 -0.36 20 1 20 C1 20.99 1 21.98 1 23 C-3.49014624 21.50328459 -7.47848764 19.16631659 -11 16 C-11 15.34 -11 14.68 -11 14 C-11.66 14 -12.32 14 -13 14 C-13 13.34 -13 12.68 -13 12 C-13.598125 11.731875 -14.19625 11.46375 -14.8125 11.1875 C-17.01819033 9.99012525 -18.43583187 8.95521016 -20 7 C-20 6.01 -20 5.02 -20 4 C-17.60612843 3.32550034 -15.21030779 2.66023359 -12.8125 2 C-12.13896484 1.80921875 -11.46542969 1.6184375 -10.77148438 1.421875 C-7.09444844 0.4174164 -3.8149818 -0.23704741 0 0 Z " fill="#28BF79" transform="translate(186,324)"/>
<path d="M0 0 C1.66918945 1.23754883 1.66918945 1.23754883 3.11328125 2.95703125 C3.63857422 3.57513672 4.16386719 4.19324219 4.70507812 4.83007812 C5.23552734 5.48427734 5.76597656 6.13847656 6.3125 6.8125 C6.86228516 7.45509766 7.41207031 8.09769531 7.97851562 8.75976562 C12 13.58055124 12 13.58055124 12 17 C11.505 16.01 11.505 16.01 11 15 C9.35 15 7.7 15 6 15 C4.23537317 11.91190305 4 10.76687864 4 7 C3.34 7 2.68 7 2 7 C1.57074219 6.51917969 1.14148438 6.03835938 0.69921875 5.54296875 C-1.56949306 3.48287412 -3.16607913 3.50869616 -6.1875 3.3125 C-7.08855469 3.24675781 -7.98960938 3.18101562 -8.91796875 3.11328125 C-9.60503906 3.07589844 -10.29210937 3.03851563 -11 3 C-11 3.66 -11 4.32 -11 5 C-16.64800112 6.8417395 -22.08507728 7.54775239 -28 8 C-28.33 6.35 -28.66 4.7 -29 3 C-28.01 2.67 -27.02 2.34 -26 2 C-26.33 3.32 -26.66 4.64 -27 6 C-26.03960815 5.72736328 -26.03960815 5.72736328 -25.05981445 5.44921875 C-22.14589318 4.62609205 -19.22927292 3.81296119 -16.3125 3 C-15.30509766 2.71382813 -14.29769531 2.42765625 -13.25976562 2.1328125 C-12.28330078 1.86210937 -11.30683594 1.59140625 -10.30078125 1.3125 C-8.95753784 0.93544922 -8.95753784 0.93544922 -7.5871582 0.55078125 C-4.90139786 -0.02099145 -2.73221785 -0.30850352 0 0 Z " fill="#4CC68F" transform="translate(124,340)"/>
<path d="M0 0 C0 0.99 0 1.98 0 3 C-0.66 3 -1.32 3 -2 3 C-2 3.66 -2 4.32 -2 5 C-3.65 5 -5.3 5 -7 5 C-7 6.65 -7 8.3 -7 10 C-8.175625 10.185625 -8.175625 10.185625 -9.375 10.375 C-12.14057822 10.79117993 -12.14057822 10.79117993 -14 13 C-15.423125 13.4021875 -15.423125 13.4021875 -16.875 13.8125 C-20.55909878 15.21245754 -21.65499879 16.9272398 -24 20 C-24.99 20 -25.98 20 -27 20 C-27 20.66 -27 21.32 -27 22 C-27.99 21.67 -28.98 21.34 -30 21 C-23.93378763 14.39456875 -17.69565508 9.56080735 -10 5 C-8.47736605 4.0236357 -6.95632291 3.04478221 -5.4375 2.0625 C-2.24758842 0 -2.24758842 0 0 0 Z " fill="#2BBF79" transform="translate(198,146)"/>
<path d="M0 0 C0.66 0.66 1.32 1.32 2 2 C4.95240621 3.32360884 4.95240621 3.32360884 7.6875 2.0625 C11.70821747 0.77283591 14.7973117 0.85507971 19 1 C14.92596276 3.71602482 10.65845227 4.83278072 6 6.25 C5.08476562 6.54390625 4.16953125 6.8378125 3.2265625 7.140625 C2.34742188 7.40875 1.46828125 7.676875 0.5625 7.953125 C-0.24058594 8.20223633 -1.04367187 8.45134766 -1.87109375 8.70800781 C-4 9 -4 9 -7 7 C-7 6.34 -7 5.68 -7 5 C-7.66 5 -8.32 5 -9 5 C-9.66 3.68 -10.32 2.36 -11 1 C-7.37 1.33 -3.74 1.66 0 2 C0 1.34 0 0.68 0 0 Z " fill="#2EC37E" transform="translate(382,152)"/>
<path d="M0 0 C12.66891315 -0.50063762 23.82068801 0.41554083 36 4 C37.69189453 4.43699219 37.69189453 4.43699219 39.41796875 4.8828125 C42 6 42 6 42.875 8.125 C42.91625 8.74375 42.9575 9.3625 43 10 C42.45214844 9.82984375 41.90429688 9.6596875 41.33984375 9.484375 C38.5655703 8.63630442 35.78345386 7.81744556 33 7 C31.33130859 6.49533203 31.33130859 6.49533203 29.62890625 5.98046875 C19.79579503 3.15437543 10.16913412 1.88528544 0 1 C0 0.67 0 0.34 0 0 Z " fill="#47C48A" transform="translate(262,95)"/>
<path d="M0 0 C0 0.33 0 0.66 0 1 C-28.74593796 8.20088626 -28.74593796 8.20088626 -41 8 C-41 7.67 -41 7.34 -41 7 C-34.16217825 4.5579208 -27.20568193 4.37977242 -20 4 C-20 3.34 -20 2.68 -20 2 C-13.02799149 -1.04702594 -7.47005253 -1.15890535 0 0 Z " fill="#3EC186" transform="translate(317,483)"/>
<path d="M0 0 C0.99 0.33 1.98 0.66 3 1 C2.20335937 1.94359375 2.20335937 1.94359375 1.390625 2.90625 C-6.93685491 12.99648113 -10.87097183 21.89733101 -12 35 C-12.66 35 -13.32 35 -14 35 C-14.10251672 29.87416389 -14.03590199 25.05002222 -13 20 C-12.34 20 -11.68 20 -11 20 C-11 19.01 -11 18.02 -11 17 C-10.34 17 -9.68 17 -9 17 C-9 15.35 -9 13.7 -9 12 C-8.34 12 -7.68 12 -7 12 C-7 10.35 -7 8.7 -7 7 C-6.34 7 -5.68 7 -5 7 C-5 6.34 -5 5.68 -5 5 C-4.34 4.67 -3.68 4.34 -3 4 C-3 3.34 -3 2.68 -3 2 C-2.01 2 -1.02 2 0 2 C0 1.34 0 0.68 0 0 Z " fill="#4AC68D" transform="translate(208,212)"/>
<path d="M0 0 C0.33 0 0.66 0 1 0 C1.13757895 8.45346223 0.95932863 15.84477004 -2.24609375 23.7421875 C-3.43524745 27.30348717 -3.87856846 30.9667933 -4.375 34.6796875 C-5 37 -5 37 -8 39 C-2.64974842 12.0423526 -2.64974842 12.0423526 0 0 Z " fill="#45C489" transform="translate(389,202)"/>
<path d="M0 0 C0.66 0.33 1.32 0.66 2 1 C0.3603125 1.8971875 0.3603125 1.8971875 -1.3125 2.8125 C-3.33662234 3.96220149 -4.91230683 4.91230683 -6.5625 6.5625 C-8.74532075 8.74532075 -11.1833374 9.79285889 -14 11 C-15.32 11 -16.64 11 -18 11 C-18.86625 11.20625 -19.7325 11.4125 -20.625 11.625 C-21.800625 11.810625 -21.800625 11.810625 -23 12 C-23.66 11.34 -24.32 10.68 -25 10 C-5.6 1.86666667 -5.6 1.86666667 0 0 Z " fill="#27C078" transform="translate(170,20)"/>
<path d="M0 0 C0.99 0 1.98 0 3 0 C1.24325427 3.9331585 -1.24498749 7.33277626 -3.75 10.8125 C-4.41890259 11.74473389 -4.41890259 11.74473389 -5.10131836 12.69580078 C-8.20729499 16.98824811 -11.39066576 21.11302466 -15 25 C-15.33 25 -15.66 25 -16 25 C-16.33 23.02 -16.66 21.04 -17 19 C-15.68 19 -14.36 19 -13 19 C-13 18.34 -13 17.68 -13 17 C-11.68 16.67 -10.36 16.34 -9 16 C-8.87625 15.236875 -8.7525 14.47375 -8.625 13.6875 C-8 11 -8 11 -6 8 C-5.34 8 -4.68 8 -4 8 C-3.8453125 7.13375 -3.8453125 7.13375 -3.6875 6.25 C-2.88350079 3.61872985 -1.86932485 2.01311907 0 0 Z " fill="#53C793" transform="translate(449,384)"/>
<path d="M0 0 C-0.66 0 -1.32 0 -2 0 C-2 0.66 -2 1.32 -2 2 C-7.94 2.495 -7.94 2.495 -14 3 C-14 3.66 -14 4.32 -14 5 C-14.99 5 -15.98 5 -17 5 C-17 5.66 -17 6.32 -17 7 C-20.28976808 8.09658936 -21.71303767 7.79953138 -25 7 C-25 7.66 -25 8.32 -25 9 C-29.455 9.495 -29.455 9.495 -34 10 C-27.07964277 4.17945504 -8.86255512 -2.95418504 0 0 Z " fill="#40C485" transform="translate(232,136)"/>
<path d="M0 0 C0 0.33 0 0.66 0 1 C-1.1770752 0.97498413 -1.1770752 0.97498413 -2.37792969 0.94946289 C-10.45080594 0.85312928 -18.24702411 1.42057339 -26.25 2.4375 C-28.46353365 2.70709705 -30.67707517 2.97662955 -32.890625 3.24609375 C-33.92638672 3.37483887 -34.96214844 3.50358398 -36.02929688 3.63623047 C-40.01613059 4.12442756 -44.00691829 4.56615251 -48 5 C-44.56780609 1.56780609 -39.67085164 1.71436554 -35 1 C-33.82179687 0.81179687 -32.64359375 0.62359375 -31.4296875 0.4296875 C-20.91788838 -1.12842886 -10.5056233 -1.97474122 0 0 Z " fill="#64CC9E" transform="translate(259,94)"/>
<path d="M0 0 C0.66 0 1.32 0 2 0 C1.06839003 7.2165011 -0.47035596 14.14833017 -2.5 21.125 C-2.71358154 21.87128662 -2.92716309 22.61757324 -3.1472168 23.38647461 C-4.75040909 28.75040909 -4.75040909 28.75040909 -7 31 C-6.85851011 29.3954444 -6.71164314 27.79136233 -6.5625 26.1875 C-6.48128906 25.29417969 -6.40007812 24.40085937 -6.31640625 23.48046875 C-6 21 -6 21 -5 18 C-4.34 18 -3.68 18 -3 18 C-3 16.741875 -3 15.48375 -3 14.1875 C-3 8.67173465 -2.32467983 5.13366795 0 0 Z " fill="#38BF81" transform="translate(486,298)"/>
<path d="M0 0 C1.32 0 2.64 0 4 0 C2.41145659 4.51526198 0.07705734 8.31517942 -2.5 12.3125 C-2.90347656 12.95767578 -3.30695313 13.60285156 -3.72265625 14.26757812 C-4.75845742 15.88281262 -5.87340548 17.44672883 -7 19 C-7.66 19 -8.32 19 -9 19 C-9 19.66 -9 20.32 -9 21 C-9.66 21 -10.32 21 -11 21 C-11.33 21.66 -11.66 22.32 -12 23 C-12.33 21.02 -12.66 19.04 -13 17 C-12.34 17 -11.68 17 -11 17 C-10.67 16.34 -10.34 15.68 -10 15 C-9.01 15.33 -8.02 15.66 -7 16 C-7.33 15.01 -7.66 14.02 -8 13 C-6.68 12.67 -5.36 12.34 -4 12 C-3.86722656 11.42765625 -3.73445313 10.8553125 -3.59765625 10.265625 C-3.00619683 8.02349125 -2.26711146 5.91420381 -1.4375 3.75 C-1.16808594 3.04359375 -0.89867187 2.3371875 -0.62109375 1.609375 C-0.41613281 1.07828125 -0.21117187 0.5471875 0 0 Z " fill="#4AC78D" transform="translate(349,304)"/>
<path d="M0 0 C0.69222656 0.27714844 1.38445312 0.55429687 2.09765625 0.83984375 C14.60681827 5.47103549 26.86734228 5.43949874 40 4 C39.67 4.66 39.34 5.32 39 6 C26.35210314 8.55233908 11.38585623 8.42279069 0 2 C0 1.34 0 0.68 0 0 Z " fill="#54C891" transform="translate(225,299)"/>
<path d="M0 0 C0.67804688 0.37511719 1.35609375 0.75023437 2.0546875 1.13671875 C8.3015738 4.571641 14.59892316 7.86194498 21 11 C20.34 11.66 19.68 12.32 19 13 C16.375 12.625 16.375 12.625 14 12 C14 11.34 14 10.68 14 10 C13.36191406 9.89042969 12.72382813 9.78085937 12.06640625 9.66796875 C11.24011719 9.50941406 10.41382813 9.35085938 9.5625 9.1875 C8.73878906 9.03667969 7.91507813 8.88585937 7.06640625 8.73046875 C6.38449219 8.48941406 5.70257813 8.24835938 5 8 C4.67 7.01 4.34 6.02 4 5 C3.34 5 2.68 5 2 5 C1.34 3.35 0.68 1.7 0 0 Z " fill="#3AC486" transform="translate(164,379)"/>
<path d="M0 0 C9.102128 0.51856202 18.01282114 1.46232654 27 3 C27 3.66 27 4.32 27 5 C29.31 5 31.62 5 34 5 C34 5.33 34 5.66 34 6 C22.51409196 6.74547961 11.03284282 3.9880616 0 1 C0 0.67 0 0.34 0 0 Z " fill="#46C48C" transform="translate(213,360)"/>
<path d="M0 0 C0.33 0 0.66 0 1 0 C0.48424182 6.22981595 -0.2580428 11.14319019 -3.5625 16.5625 C-4.87112025 18.78146478 -5.53532436 20.49075157 -6 23 C-7.32 22.67 -8.64 22.34 -10 22 C-9.34 22 -8.68 22 -8 22 C-7.90847656 21.18273437 -7.81695312 20.36546875 -7.72265625 19.5234375 C-6.84363464 15.23761321 -5.2473016 11.58864469 -3.4375 7.625 C-3.10814453 6.88894531 -2.77878906 6.15289062 -2.43945312 5.39453125 C-1.63252195 3.59355443 -0.8171174 1.79637819 0 0 Z " fill="#4CC990" transform="translate(147,194)"/>
<path d="M0 0 C1.1558192 3.46745759 0.79043604 4.61500862 -0.14453125 8.078125 C-0.40943359 9.07457031 -0.67433594 10.07101562 -0.94726562 11.09765625 C-1.37555664 12.65806641 -1.37555664 12.65806641 -1.8125 14.25 C-2.08642578 15.27480469 -2.36035156 16.29960937 -2.64257812 17.35546875 C-4.04577659 22.58465439 -5.4941986 27.79947613 -7 33 C-7.33 33 -7.66 33 -8 33 C-8 28.05 -8 23.1 -8 18 C-7.01 18 -6.02 18 -5 18 C-4.89042969 17.45472656 -4.78085938 16.90945313 -4.66796875 16.34765625 C-3.48990063 10.74464935 -1.912965 5.3945613 0 0 Z " fill="#52C490" transform="translate(114,281)"/>
<path d="M0 0 C0.33 0.66 0.66 1.32 1 2 C1.99 2.3403125 1.99 2.3403125 3 2.6875 C5 4 5 4 5.8125 7.5625 C5.874375 8.696875 5.93625 9.83125 6 11 C5 12 5 12 2.4375 12.0625 C1.633125 12.041875 0.82875 12.02125 0 12 C0.99 11.67 1.98 11.34 3 11 C2.50628906 10.44570313 2.01257813 9.89140625 1.50390625 9.3203125 C0.86324219 8.59585937 0.22257813 7.87140625 -0.4375 7.125 C-1.07558594 6.40570313 -1.71367187 5.68640625 -2.37109375 4.9453125 C-4 3 -4 3 -5 1 C-3.35 0.67 -1.7 0.34 0 0 Z " fill="#27C27A" transform="translate(186,312)"/>
<path d="M0 0 C5.00178839 1.27952726 7.64398848 3.08465323 11 7 C12.3125 9.3125 12.3125 9.3125 13 11 C13.66 11 14.32 11 15 11 C15 11.99 15 12.98 15 14 C15.66 14 16.32 14 17 14 C17 13.34 17 12.68 17 12 C17.66 12 18.32 12 19 12 C19 13.98 19 15.96 19 18 C18.01 18 17.02 18 16 18 C13.87890625 15.69921875 13.87890625 15.69921875 11.5625 12.6875 C8.89543626 9.23520937 6.4903867 6.58399927 3 4 C3 3.34 3 2.68 3 2 C2.01 1.67 1.02 1.34 0 1 C0 0.67 0 0.34 0 0 Z " fill="#49C68B" transform="translate(353,134)"/>
<path d="M0 0 C0.33 1.32 0.66 2.64 1 4 C0.34 4 -0.32 4 -1 4 C-1.0825 4.53625 -1.165 5.0725 -1.25 5.625 C-2.53773802 9.70283705 -4.99660004 12.99660004 -8 16 C-10.125 15.625 -10.125 15.625 -12 15 C-8.08566836 9.92377741 -4.14084264 4.89372312 0 0 Z " fill="#35C27E" transform="translate(64,93)"/>
<path d="M0 0 C2.97 0.495 2.97 0.495 6 1 C6.33 2.32 6.66 3.64 7 5 C7.66 5 8.32 5 9 5 C9.45375 5.474375 9.9075 5.94875 10.375 6.4375 C12.22977487 8.22093737 13.50135592 8.5691993 16 9 C16 10.65 16 12.3 16 14 C16.99 14.33 17.98 14.66 19 15 C18.01 15.495 18.01 15.495 17 16 C16.34 15.67 15.68 15.34 15 15 C15 14.34 15 13.68 15 13 C14.1028125 12.566875 14.1028125 12.566875 13.1875 12.125 C11 11 11 11 8 9 C8 8.34 8 7.68 8 7 C7.4225 6.773125 6.845 6.54625 6.25 6.3125 C3.4336339 4.66961977 1.91922886 2.60466773 0 0 Z " fill="#4EC994" transform="translate(81,424)"/>
<path d="M0 0 C1.32 0 2.64 0 4 0 C2.51516897 3.23693164 0.67292565 5.9325625 -1.5 8.75 C-2.1084375 9.54921875 -2.716875 10.3484375 -3.34375 11.171875 C-3.8903125 11.77515625 -4.436875 12.3784375 -5 13 C-5.66 13 -6.32 13 -7 13 C-7.66 14.65 -8.32 16.3 -9 18 C-9.66 16.68 -10.32 15.36 -11 14 C-9 11 -9 11 -6 10 C-6 9.34 -6 8.68 -6 8 C-5.34 8 -4.68 8 -4 8 C-3.67 6.68 -3.34 5.36 -3 4 C-2.01 4 -1.02 4 0 4 C0 2.68 0 1.36 0 0 Z " fill="#4FC791" transform="translate(132,144)"/>
<path d="M0 0 C3.96 0.33 7.92 0.66 12 1 C12.33 2.32 12.66 3.64 13 5 C15.97 5.495 15.97 5.495 19 6 C19 6.66 19 7.32 19 8 C19.598125 8.0825 20.19625 8.165 20.8125 8.25 C23.5966296 9.20455872 24.43311142 10.57132271 26 13 C20.76189941 11.03571228 15.86006726 8.45641802 10.8828125 5.921875 C7.30550349 4.11297157 3.75934351 2.40975382 0 1 C0 0.67 0 0.34 0 0 Z " fill="#6CD2A4" transform="translate(306,105)"/>
<path d="M0 0 C0.33 0 0.66 0 1 0 C1.10957031 0.75023437 1.21914062 1.50046875 1.33203125 2.2734375 C2.38286056 9.05683972 3.83798802 15.48513722 6 22 C5.34 22.33 4.68 22.66 4 23 C4 22.34 4 21.68 4 21 C3.01 21 2.02 21 1 21 C1.0825 20.236875 1.165 19.47375 1.25 18.6875 C1.29166667 15.85416667 1.29166667 15.85416667 -1 14.1875 C-1.99 13.5996875 -1.99 13.5996875 -3 13 C-2.34 13 -1.68 13 -1 13 C-1.020625 11.783125 -1.04125 10.56625 -1.0625 9.3125 C-1.06824116 6.08022678 -0.78766315 3.15065259 0 0 Z " fill="#46C88D" transform="translate(195,254)"/>
<path d="M0 0 C0.33 0 0.66 0 1 0 C1.32380699 6.79994678 0.385228 11.6791458 -2 18 C-2.760259 20.38139952 -3.50899594 22.76610563 -4.25390625 25.15234375 C-5 27 -5 27 -7 29 C-8.41036511 24.76890466 -6.71005211 21.86045366 -5.1875 17.875 C-3.00189806 11.95383485 -1.13221991 6.22720953 0 0 Z " fill="#50C68F" transform="translate(402,280)"/>
<path d="M0 0 C2.45133382 3.67700073 2.09849055 6.1127675 1.75 10.3125 C1.6991626 11.01439453 1.6483252 11.71628906 1.59594727 12.43945312 C1.05576317 19.3401693 0.09973753 26.16667941 -1 33 C-1.33 33 -1.66 33 -2 33 C-2.2964981 21.83190472 -1.42033442 11.07099954 0 0 Z " fill="#45C287" transform="translate(490,264)"/>
<path d="M0 0 C0.99 0.33 1.98 0.66 3 1 C2.01 1.495 2.01 1.495 1 2 C1 2.66 1 3.32 1 4 C-4.27938282 7.89847663 -10.03607582 11.25981862 -16 14 C-16.33 13.01 -16.66 12.02 -17 11 C-15.68 11 -14.36 11 -13 11 C-12.67 10.34 -12.34 9.68 -12 9 C-9.4375 8.375 -9.4375 8.375 -7 8 C-6.67 6.68 -6.34 5.36 -6 4 C-6.66 3.67 -7.32 3.34 -8 3 C-5.13822943 1.56911472 -3.06624227 2.40008303 0 3 C0 2.01 0 1.02 0 0 Z " fill="#49C88F" transform="translate(322,338)"/>
<path d="M0 0 C0 0.66 0 1.32 0 2 C-1.32 2 -2.64 2 -4 2 C-4 2.66 -4 3.32 -4 4 C-4.93972656 4.18175781 -4.93972656 4.18175781 -5.8984375 4.3671875 C-6.71570313 4.53476562 -7.53296875 4.70234375 -8.375 4.875 C-9.59316406 5.11863281 -9.59316406 5.11863281 -10.8359375 5.3671875 C-13.18673923 5.86658932 -13.18673923 5.86658932 -15 8 C-17.1640625 7.9765625 -17.1640625 7.9765625 -19.625 7.625 C-20.44226563 7.51414062 -21.25953125 7.40328125 -22.1015625 7.2890625 C-22.72804687 7.19367187 -23.35453125 7.09828125 -24 7 C-21.28523485 5.19015657 -19.68908906 4.50635562 -16.62109375 3.7109375 C-15.78255859 3.49179687 -14.94402344 3.27265625 -14.08007812 3.046875 C-13.20802734 2.82515625 -12.33597656 2.6034375 -11.4375 2.375 C-10.56158203 2.14554688 -9.68566406 1.91609375 -8.78320312 1.6796875 C-2.28941127 0 -2.28941127 0 0 0 Z " fill="#3DC384" transform="translate(196,13)"/>
<path d="M0 0 C2.91471982 2.77989798 5.31710598 5.63832991 7.625 8.9375 C8.21539062 9.77152344 8.80578125 10.60554688 9.4140625 11.46484375 C10.94972958 13.91964162 12.01805185 16.28262863 13 19 C9.94917061 17.98305687 9.09627325 17.27855788 7 15 C6.34 14.34 5.68 13.68 5 13 C4.875 10.375 4.875 10.375 5 8 C4.34 8 3.68 8 3 8 C3 7.34 3 6.68 3 6 C2.01 5.67 1.02 5.34 0 5 C0 3.35 0 1.7 0 0 Z " fill="#51C893" transform="translate(444,105)"/>
<path d="M0 0 C0.33 0 0.66 0 1 0 C1.29883729 7.47093223 0.15925507 14.63044989 -1 22 C-1.66 22 -2.32 22 -3 22 C-3 22.66 -3 23.32 -3 24 C-3.66 24 -4.32 24 -5 24 C-1.92482916 7.1070615 -1.92482916 7.1070615 0 0 Z " fill="#4FC893" transform="translate(395,177)"/>
<path d="M0 0 C1.98 0 3.96 0 6 0 C4 5 2 10 0 15 C-0.33 15 -0.66 15 -1 15 C-1.02703381 13.06257659 -1.04641125 11.12504521 -1.0625 9.1875 C-1.07410156 8.10855469 -1.08570312 7.02960938 -1.09765625 5.91796875 C-1 3 -1 3 0 0 Z " fill="#37C383" transform="translate(107,177)"/>
<path d="M0 0 C3.14191424 1.53604696 6.08596738 3.05731159 9 5 C9 5.66 9 6.32 9 7 C9.66 7 10.32 7 11 7 C11 7.66 11 8.32 11 9 C11.598125 9.2475 12.19625 9.495 12.8125 9.75 C15.28647521 11.16370012 16.43370255 12.65055383 18 15 C15.5625 14.625 15.5625 14.625 13 14 C12.67 13.34 12.34 12.68 12 12 C11.38125 11.731875 10.7625 11.46375 10.125 11.1875 C7.36530578 9.64531793 6.58356552 7.68517631 5 5 C4.01 4.67 3.02 4.34 2 4 C2 3.34 2 2.68 2 2 C1.34 2 0.68 2 0 2 C0 1.34 0 0.68 0 0 Z " fill="#35BF80" transform="translate(314,153)"/>
<path d="M0 0 C-8.12881073 4.16906817 -15.96235022 4.52367449 -25 5 C-24.67 4.34 -24.34 3.68 -24 3 C-16.09466142 0.36488714 -8.28126565 -0.44808451 0 0 Z " fill="#4EC48D" transform="translate(223,9)"/>
<path d="M0 0 C9.55052847 -0.72843014 17.90161486 1.4428629 27 4 C26.34 4.66 25.68 5.32 25 6 C23.13907581 5.56014519 21.28016064 5.10690589 19.44140625 4.58203125 C15.03080459 3.53054381 10.51360639 3.31528868 6 3 C6 2.34 6 1.68 6 1 C4.02 1 2.04 1 0 1 C0 0.67 0 0.34 0 0 Z " fill="#48C48D" transform="translate(257,134)"/>
<path d="M0 0 C0.33 0 0.66 0 1 0 C1.5064814 2.70726366 2.005351 5.41557124 2.5 8.125 C2.64308594 8.88554687 2.78617187 9.64609375 2.93359375 10.4296875 C3.70312456 14.68042914 4.16644376 18.65859197 4 23 C3.01 22.34 2.02 21.68 1 21 C0.5234375 18.13671875 0.5234375 18.13671875 0.375 14.6875 C0.15615835 9.94529619 0.15615835 9.94529619 -0.5859375 5.26953125 C-1 3 -1 3 0 0 Z " fill="#39BF82" transform="translate(486,195)"/>
<path d="M0 0 C0.33 1.32 0.66 2.64 1 4 C0.34 4 -0.32 4 -1 4 C-1 5.65 -1 7.3 -1 9 C-1.99 9.495 -1.99 9.495 -3 10 C-2.34 10.66 -1.68 11.32 -1 12 C-5.75 15 -5.75 15 -8 15 C-8 15.66 -8 16.32 -8 17 C-8.99 16.67 -9.98 16.34 -11 16 C-10.34 15.01 -9.68 14.02 -9 13 C-8.34 13 -7.68 13 -7 13 C-6.773125 12.34 -6.54625 11.68 -6.3125 11 C-4.59428642 7.07265467 -2.33225393 3.58739822 0 0 Z " fill="#49C78E" transform="translate(382,330)"/>
<path d="M0 0 C1.5625 1.25 1.5625 1.25 3 3 C2.855625 3.5465625 2.71125 4.093125 2.5625 4.65625 C1.77401459 7.94160589 2.15772833 10.89273999 2.4375 14.25 C2.59025391 16.14492188 2.59025391 16.14492188 2.74609375 18.078125 C2.82988281 19.04234375 2.91367188 20.0065625 3 21 C0.84358669 17.76538003 0.18899027 15.32927039 -0.6875 11.5625 C-0.95949219 10.42941406 -1.23148438 9.29632813 -1.51171875 8.12890625 C-1.96235856 5.24120637 -2.04604733 3.68168499 -1 1 C-0.67 0.67 -0.34 0.34 0 0 Z " fill="#40C488" transform="translate(13,293)"/>
<path d="M0 0 C-4.29633174 4.29633174 -13.05953181 3.87437252 -18.92578125 4.125 C-20.95094951 4.125 -22.97603469 4.06979191 -25 4 C-20.6468668 1.0979112 -17.26565835 0.77984828 -12.125 0.4375 C-10.91070312 0.35371094 -9.69640625 0.26992188 -8.4453125 0.18359375 C-5.61925847 0.03299903 -2.82860715 -0.03764306 0 0 Z " fill="#4AC08D" transform="translate(279,362)"/>
<path d="M0 0 C0.66 0 1.32 0 2 0 C3.14307056 3.81023519 3.40397243 7.67829622 3.6875 11.625 C3.74744141 12.305625 3.80738281 12.98625 3.86914062 13.6875 C3.99658621 15.45427984 4.00622257 17.22864045 4 19 C3.34 19.66 2.68 20.32 2 21 C0.79556805 13.94546999 -0.28100502 7.16562789 0 0 Z " fill="#47C88C" transform="translate(8,269)"/>
<path d="M0 0 C2.64 0.33 5.28 0.66 8 1 C3.98745115 4.51098025 -0.20983041 6.76537994 -5 9 C-5 8.01 -5 7.02 -5 6 C-4.34 6 -3.68 6 -3 6 C-2.67 5.01 -2.34 4.02 -2 3 C-1.34 2.01 -0.68 1.02 0 0 Z " fill="#43C88C" transform="translate(378,450)"/>
<path d="M0 0 C4.21814817 3.9700218 7.61227103 8.30840284 11 13 C10.01 13.495 10.01 13.495 9 14 C9 13.34 9 12.68 9 12 C7.35 12 5.7 12 4 12 C2.23537317 8.91190305 2 7.76687864 2 4 C1.34 4 0.68 4 0 4 C0 2.68 0 1.36 0 0 Z " fill="#46C78D" transform="translate(126,343)"/>
<path d="M0 0 C1.65 0 3.3 0 5 0 C4.01 0.33 3.02 0.66 2 1 C1.88527344 1.69609375 1.77054687 2.3921875 1.65234375 3.109375 C0.92480689 6.33319102 -0.17103998 9.19847022 -1.4375 12.25 C-1.86933594 13.30703125 -2.30117188 14.3640625 -2.74609375 15.453125 C-4 18 -4 18 -6 19 C-5.41196203 15.97580475 -4.77321882 12.98241547 -4 10 C-3.34 10 -2.68 10 -2 10 C-2 8.02 -2 6.04 -2 4 C-1.34 4 -0.68 4 0 4 C0 2.68 0 1.36 0 0 Z " fill="#55C891" transform="translate(359,284)"/>
<path d="M0 0 C0.66 0.33 1.32 0.66 2 1 C1.67 1.99 1.34 2.98 1 4 C0.401875 4.28875 -0.19625 4.5775 -0.8125 4.875 C-3.24150152 5.93209535 -3.24150152 5.93209535 -5.0625 8.625 C-5.701875 9.40875 -6.34125 10.1925 -7 11 C-7.99 11 -8.98 11 -10 11 C-10 11.66 -10 12.32 -10 13 C-10.99 12.67 -11.98 12.34 -13 12 C-11.58653438 10.55935235 -10.16908789 9.12260985 -8.75 7.6875 C-7.96109375 6.88699219 -7.1721875 6.08648437 -6.359375 5.26171875 C-4.32605933 3.31256349 -2.29398922 1.62578594 0 0 Z " fill="#4FC690" transform="translate(181,155)"/>
<path d="M0 0 C1.46726798 3.81489674 0.43336419 6.29011622 -1 10 C-1.66 10 -2.32 10 -3 10 C-3.33 11.32 -3.66 12.64 -4 14 C-4.66 14 -5.32 14 -6 14 C-6 14.99 -6 15.98 -6 17 C-6.66 17 -7.32 17 -8 17 C-6.58192622 12.52761347 -4.88695626 8.28853694 -3 4 C-2.34 4 -1.68 4 -1 4 C-0.67 2.68 -0.34 1.36 0 0 Z " fill="#57C894" transform="translate(36,134)"/>
<path d="M0 0 C5.18029908 0.70114429 10.30351936 1.58079647 15.4375 2.5625 C16.53481445 2.77036133 16.53481445 2.77036133 17.65429688 2.98242188 C19.43646318 3.3202181 21.21827002 3.65990988 23 4 C23 4.33 23 4.66 23 5 C14.63722668 5.15143855 7.4908084 5.20216081 0 1 C0 0.67 0 0.34 0 0 Z " fill="#4BC28B" transform="translate(283,9)"/>
<path d="M0 0 C0.33 0 0.66 0 1 0 C1.09733092 7.09434233 1.10087193 13.98194143 0 21 C-0.66 21 -1.32 21 -2 21 C-2.265625 4.53125 -2.265625 4.53125 0 0 Z " fill="#55CA95" transform="translate(10,209)"/>
<path d="M0 0 C1.06669922 -0.01224609 2.13339844 -0.02449219 3.23242188 -0.03710938 C4.25013672 -0.03904297 5.26785156 -0.04097656 6.31640625 -0.04296875 C7.2504126 -0.04707764 8.18441895 -0.05118652 9.14672852 -0.05541992 C11.4375 0.1875 11.4375 0.1875 13.4375 2.1875 C12.87877197 2.18226318 12.32004395 2.17702637 11.74438477 2.17163086 C9.16293506 2.15058281 6.58150351 2.13775266 4 2.125 C2.68225586 2.11243164 2.68225586 2.11243164 1.33789062 2.09960938 C-4.38033077 2.07850893 -9.89050815 2.45469943 -15.5625 3.1875 C-13.12571129 -1.68607741 -4.70119917 0.00285094 0 0 Z " fill="#39B680" transform="translate(247.5625,194.8125)"/>
<path d="M0 0 C0 3.92426335 -1.44326469 5.82899908 -3.4375 9.1875 C-4.07558594 10.27417969 -4.71367188 11.36085937 -5.37109375 12.48046875 C-5.90863281 13.31191406 -6.44617188 14.14335937 -7 15 C-7.33 15 -7.66 15 -8 15 C-8.19324053 10.84532871 -8.09242143 7.6617375 -6 4 C-3.875 3.1875 -3.875 3.1875 -2 3 C-2 2.34 -2 1.68 -2 1 C-1.34 0.67 -0.68 0.34 0 0 Z " fill="#5BCB98" transform="translate(121,162)"/>
<path d="M0 0 C0.33 0 0.66 0 1 0 C1.3125 2.6875 1.3125 2.6875 1 6 C-1.62367103 9.20670904 -4.15211415 11.4323428 -8 13 C-6.42903279 7.97290493 -3.38006951 3.97133531 0 0 Z " fill="#31BE7D" transform="translate(51,110)"/>
<path d="M0 0 C3.82990706 0.64743667 6.5283898 2.45311237 9.75 4.5625 C11.22726562 5.52349609 11.22726562 5.52349609 12.734375 6.50390625 C13.85585938 7.24447266 13.85585938 7.24447266 15 8 C14.34 8.66 13.68 9.32 13 10 C9.535 8.02 9.535 8.02 6 6 C6 5.34 6 4.68 6 4 C4.35 3.67 2.7 3.34 1 3 C0.67 2.01 0.34 1.02 0 0 Z " fill="#4DC68F" transform="translate(369,39)"/>
<path d="M0 0 C0.33 0.99 0.66 1.98 1 3 C-0.21057169 5.34804122 -1.4455738 7.48121174 -2.875 9.6875 C-3.44154297 10.59725586 -3.44154297 10.59725586 -4.01953125 11.52539062 C-4.97715304 13.04020516 -5.98462163 14.52327751 -7 16 C-7.33 16 -7.66 16 -8 16 C-8 13.69 -8 11.38 -8 9 C-7.01 9.33 -6.02 9.66 -5 10 C-4.855625 9.401875 -4.71125 8.80375 -4.5625 8.1875 C-4.1127561 6.43849596 -3.57107659 4.71322977 -3 3 C-2.34 3 -1.68 3 -1 3 C-0.67 2.01 -0.34 1.02 0 0 Z " fill="#40C58D" transform="translate(460,368)"/>
<path d="M0 0 C8.01642178 1.96629213 8.01642178 1.96629213 10 5 C10 6.32 10 7.64 10 9 C10.66 9 11.32 9 12 9 C11.67 9.99 11.34 10.98 11 12 C11 11.34 11 10.68 11 10 C10.41734375 9.74347656 9.8346875 9.48695313 9.234375 9.22265625 C6.80289161 7.89214174 5.18264447 6.41556987 3.25 4.4375 C2.63640625 3.81746094 2.0228125 3.19742187 1.390625 2.55859375 C0 1 0 1 0 0 Z " fill="#5ECF9B" transform="translate(164,296)"/>
<path d="M0 0 C2.19202046 3.28803068 3.04258616 6.08254261 4.125 9.875 C4.47820312 11.08929688 4.83140625 12.30359375 5.1953125 13.5546875 C5.89353035 16.5441445 6.1736106 18.95602755 6 22 C3 20 3 20 2.05078125 16.4453125 C1.79165538 15.00749613 1.54605824 13.56719024 1.3125 12.125 C1.18294922 11.40441406 1.05339844 10.68382812 0.91992188 9.94140625 C0.33157275 6.56073348 0 3.44130802 0 0 Z " fill="#5AC795" transform="translate(480,173)"/>
<path d="M0 0 C7.05582926 1.94290951 12.8653455 5.04257152 19 9 C16 10 16 10 13.8125 9.0625 C13.214375 8.711875 12.61625 8.36125 12 8 C12 7.34 12 6.68 12 6 C11.236875 6.04125 10.47375 6.0825 9.6875 6.125 C7 6 7 6 4 4 C4 3.34 4 2.68 4 2 C2.68 1.67 1.36 1.34 0 1 C0 0.67 0 0.34 0 0 Z " fill="#6BCFA0" transform="translate(293,142)"/>
<path d="M0 0 C0 0.66 0 1.32 0 2 C-0.99 2.33 -1.98 2.66 -3 3 C-3.73323796 5.01508358 -3.73323796 5.01508358 -4 7 C-6.31 7 -8.62 7 -11 7 C-11 7.66 -11 8.32 -11 9 C-12.32 8.67 -13.64 8.34 -15 8 C-12.8782637 6.66121428 -10.75294812 5.32884524 -8.625 4 C-8.02171875 3.6184375 -7.4184375 3.236875 -6.796875 2.84375 C-2.2265625 0 -2.2265625 0 0 0 Z " fill="#4DC991" transform="translate(132,38)"/>
<path d="M0 0 C5.31520851 0.4504414 8.49372692 1.03534666 13 4 C14.98451771 4.71143088 16.98202112 5.38991336 19 6 C19 6.66 19 7.32 19 8 C12.38465328 6.34616332 6.25411591 3.69060487 0 1 C0 0.67 0 0.34 0 0 Z " fill="#53C693" transform="translate(194,352)"/>
<path d="M0 0 C0 0.33 0 0.66 0 1 C-2.37475834 1.48039005 -4.74979155 1.95934474 -7.125 2.4375 C-8.12273437 2.63956055 -8.12273437 2.63956055 -9.140625 2.84570312 C-13.08346807 3.63813727 -17.02912121 4.36292755 -21 5 C-21 4.34 -21 3.68 -21 3 C-14.19155301 -0.09474863 -7.33709165 -0.14973656 0 0 Z " fill="#57C997" transform="translate(388,279)"/>
<path d="M0 0 C1.32 0 2.64 0 4 0 C4 0.99 4 1.98 4 3 C6.97 3.495 6.97 3.495 10 4 C10 5.65 10 7.3 10 9 C10.66 9.33 11.32 9.66 12 10 C9 10 9 10 6.73828125 8.06640625 C5.93777344 7.24011719 5.13726562 6.41382813 4.3125 5.5625 C3.50425781 4.73878906 2.69601563 3.91507812 1.86328125 3.06640625 C0 1 0 1 0 0 Z " fill="#48C78E" transform="translate(131,262)"/>
<path d="M0 0 C3.79557881 0 5.62902617 0.50178941 9 2 C6.38485683 4.12038635 3.80362384 6.13091744 1 8 C1 6.68 1 5.36 1 4 C0.34 3.67 -0.32 3.34 -1 3 C-0.67 2.01 -0.34 1.02 0 0 Z " fill="#36C581" transform="translate(212,202)"/>
<path d="M0 0 C10.939192 0.61599334 10.939192 0.61599334 15 4 C15 4.66 15 5.32 15 6 C9.45949887 5.43174347 4.96284034 3.37113483 0 1 C0 0.67 0 0.34 0 0 Z " fill="#42C187" transform="translate(153,472)"/>
<path d="M0 0 C-1.59092052 4.13639336 -4.60474918 7.23213248 -8 10 C-8.66 10 -9.32 10 -10 10 C-9.67 8.68 -9.34 7.36 -9 6 C-8.34 6.33 -7.68 6.66 -7 7 C-6.9175 6.21625 -6.835 5.4325 -6.75 4.625 C-6 2 -6 2 -4.0625 0.6875 C-2 0 -2 0 0 0 Z " fill="#45C990" transform="translate(426,416)"/>
<path d="M0 0 C1.32 0.33 2.64 0.66 4 1 C4.33 5.95 4.66 10.9 5 16 C3.26453924 13.39680887 2.34824767 11.47732763 1.375 8.5625 C1.11460938 7.80066406 0.85421875 7.03882813 0.5859375 6.25390625 C0 4 0 4 0 0 Z " fill="#45C58B" transform="translate(16,314)"/>
<path d="M0 0 C0.33 0.99 0.66 1.98 1 3 C-0.1875 5.1875 -0.1875 5.1875 -2 7 C-3.32 7 -4.64 7 -6 7 C-6.2475 7.804375 -6.495 8.60875 -6.75 9.4375 C-8 12 -8 12 -10.125 12.8125 C-10.74375 12.874375 -11.3625 12.93625 -12 13 C-11.34 11.68 -10.68 10.36 -10 9 C-9.34 9 -8.68 9 -8 9 C-7.67 8.01 -7.34 7.02 -7 6 C-6.34 6 -5.68 6 -5 6 C-5 5.34 -5 4.68 -5 4 C-3.37373596 2.61767557 -1.7074998 1.28062485 0 0 Z " fill="#50C691" transform="translate(85,71)"/>
<path d="M0 0 C2.6189665 2.6189665 3.75694675 5.64745639 5.1875 9 C5.47302734 9.64195312 5.75855469 10.28390625 6.05273438 10.9453125 C6.76587917 12.60411159 7.38980963 14.30063023 8 16 C7.67 16.66 7.34 17.32 7 18 C6.67 16.68 6.34 15.36 6 14 C5.34 14 4.68 14 4 14 C3.71125 13.030625 3.4225 12.06125 3.125 11.0625 C2.35785318 7.89335797 2.35785318 7.89335797 0 7 C0 4.69 0 2.38 0 0 Z " fill="#4CC48A" transform="translate(467,142)"/>
<path d="M0 0 C-0.6484375 2.41796875 -0.6484375 2.41796875 -2 5 C-4.6015625 5.92578125 -4.6015625 5.92578125 -7.625 6.3125 C-8.62789062 6.45300781 -9.63078125 6.59351563 -10.6640625 6.73828125 C-11.43492187 6.82464844 -12.20578125 6.91101562 -13 7 C-11.6875 5.5 -11.6875 5.5 -10 4 C-9.01 4 -8.02 4 -7 4 C-7 3.34 -7 2.68 -7 2 C-2.25 0 -2.25 0 0 0 Z " fill="#4DC68F" transform="translate(145,31)"/>
<path d="M0 0 C1.05885048 4.23540194 0.84091257 6.83640725 0.25 11.125 C0.01023437 12.98511719 0.01023437 12.98511719 -0.234375 14.8828125 C-1 18 -1 18 -4 20 C-2.68 13.4 -1.36 6.8 0 0 Z " fill="#62CF9F" transform="translate(385,221)"/>
<path d="M0 0 C0 0.66 0 1.32 0 2 C-1.010625 2.12375 -2.02125 2.2475 -3.0625 2.375 C-6.95741309 2.8977863 -6.95741309 2.8977863 -10.4375 4.0625 C-14.52332486 5.13771707 -17.79534017 5.14753192 -22 5 C-22 4.67 -22 4.34 -22 4 C-18.89688362 3.32838005 -15.79234832 2.66356325 -12.6875 2 C-11.80642578 1.80921875 -10.92535156 1.6184375 -10.01757812 1.421875 C-9.17001953 1.24140625 -8.32246094 1.0609375 -7.44921875 0.875 C-6.66893311 0.70742187 -5.88864746 0.53984375 -5.0847168 0.3671875 C-3 0 -3 0 0 0 Z " fill="#53C58F" transform="translate(137,217)"/>
<path d="M0 0 C0.33 0.66 0.66 1.32 1 2 C1.61875 2.28875 2.2375 2.5775 2.875 2.875 C5.36796335 4.19480413 6.45147781 5.67721672 8 8 C2.58860759 8.36075949 2.58860759 8.36075949 0.0625 6.8125 C-1 5 -1 5 -0.6875 2.3125 C-0.460625 1.549375 -0.23375 0.78625 0 0 Z " fill="#47C98D" transform="translate(337,207)"/>
<path d="M0 0 C0.66 0 1.32 0 2 0 C1.35155914 4.19283118 0.48783354 8.26499921 -0.5625 12.375 C-0.83191406 13.43460938 -1.10132812 14.49421875 -1.37890625 15.5859375 C-1.58386719 16.38257813 -1.78882812 17.17921875 -2 18 C-2.33 18 -2.66 18 -3 18 C-2.88521587 15.93690624 -2.75773802 13.87451646 -2.625 11.8125 C-2.55539063 10.66394531 -2.48578125 9.51539063 -2.4140625 8.33203125 C-2.02490426 5.20040883 -1.3190149 2.84714191 0 0 Z " fill="#4CC38D" transform="translate(101,199)"/>
<path d="M0 0 C1.32 0.33 2.64 0.66 4 1 C3.45730469 1.39832031 2.91460937 1.79664062 2.35546875 2.20703125 C1.28232422 3.00173828 1.28232422 3.00173828 0.1875 3.8125 C-0.87404297 4.59560547 -0.87404297 4.59560547 -1.95703125 5.39453125 C-4.00874525 6.93106467 -4.00874525 6.93106467 -5.63671875 8.69921875 C-7 10 -7 10 -9 10 C-9 8.68 -9 7.36 -9 6 C-7.68 6 -6.36 6 -5 6 C-5 5.01 -5 4.02 -5 3 C-3.35 2.67 -1.7 2.34 0 2 C0 1.34 0 0.68 0 0 Z " fill="#57C995" transform="translate(153,126)"/>
<path d="M0 0 C1.65 0 3.3 0 5 0 C1.82803641 2.67394998 -1.18852149 3.92531217 -5.125 5.1875 C-6.17945313 5.53167969 -7.23390625 5.87585938 -8.3203125 6.23046875 C-11 7 -11 7 -13 7 C-13 6.34 -13 5.68 -13 5 C-4.57142857 1.57142857 -4.57142857 1.57142857 0 2 C0 1.34 0 0.68 0 0 Z " fill="#59C897" transform="translate(340,473)"/>
<path d="M0 0 C0.33 0.66 0.66 1.32 1 2 C0.0625 4.625 0.0625 4.625 -1 7 C-1.66 7 -2.32 7 -3 7 C-3 7.66 -3 8.32 -3 9 C-3.639375 9.103125 -4.27875 9.20625 -4.9375 9.3125 C-5.9584375 9.6528125 -5.9584375 9.6528125 -7 10 C-7.33 10.99 -7.66 11.98 -8 13 C-8.66 12.67 -9.32 12.34 -10 12 C-6.7 8.04 -3.4 4.08 0 0 Z " fill="#5ACA98" transform="translate(370,347)"/>
<path d="M0 0 C0.66 0 1.32 0 2 0 C1.34849138 6.12418104 0.49644342 13.50355658 -4 18 C-3.85851011 16.3954444 -3.71164314 14.79136233 -3.5625 13.1875 C-3.48128906 12.29417969 -3.40007812 11.40085937 -3.31640625 10.48046875 C-3 8 -3 8 -2 5 C-1.34 5 -0.68 5 0 5 C0 3.35 0 1.7 0 0 Z " fill="#56C794" transform="translate(483,311)"/>
<path d="M0 0 C2.9156164 3.54039134 5.50127818 7.1626772 8 11 C7.01 11.495 7.01 11.495 6 12 C5.67 11.34 5.34 10.68 5 10 C3.35636866 9.27840576 1.68949614 8.60648579 0 8 C0 5.36 0 2.72 0 0 Z " fill="#4DC992" transform="translate(201,276)"/>
<path d="M0 0 C0.66 0 1.32 0 2 0 C2.59244521 6.66500865 0.48322845 11.86952975 -2 18 C-3.51553092 14.02549507 -2.49888623 10.79518851 -1.5625 6.75 C-1.27503906 5.48671875 -0.98757813 4.2234375 -0.69140625 2.921875 C-0.46324219 1.95765625 -0.23507812 0.9934375 0 0 Z " fill="#53CB94" transform="translate(399,159)"/>
<path d="M0 0 C-3.16566573 2.11044382 -5.51197415 2.75552077 -9.1875 3.625 C-10.27417969 3.88539063 -11.36085938 4.14578125 -12.48046875 4.4140625 C-13.31191406 4.60742188 -14.14335937 4.80078125 -15 5 C-15.33 4.34 -15.66 3.68 -16 3 C-10.28264895 0.54970669 -6.20970773 -0.33266291 0 0 Z " fill="#49C88C" transform="translate(401,153)"/>
<path d="M0 0 C0.99 0.33 1.98 0.66 3 1 C2.34 1 1.68 1 1 1 C1 1.66 1 2.32 1 3 C-0.32 3 -1.64 3 -3 3 C-3 3.66 -3 4.32 -3 5 C-6.3125 6.625 -6.3125 6.625 -10 8 C-10.99 7.34 -11.98 6.68 -13 6 C-12.14535156 5.65066406 -11.29070312 5.30132812 -10.41015625 4.94140625 C-9.30542969 4.48636719 -8.20070312 4.03132813 -7.0625 3.5625 C-5.96035156 3.11003906 -4.85820312 2.65757813 -3.72265625 2.19140625 C-1.13431084 1.25575392 -1.13431084 1.25575392 0 0 Z " fill="#55CA93" transform="translate(158,24)"/>
<path d="M0 0 C-4.455 2.97 -4.455 2.97 -9 6 C-9.33 4.68 -9.66 3.36 -10 2 C-6.60610229 -1.39389771 -4.62737121 -1.1568428 0 0 Z " fill="#40C288" transform="translate(401,441)"/>
<path d="M0 0 C4.51045941 2.46025059 8.18504423 5.60282037 12 9 C11.34 9.66 10.68 10.32 10 11 C10 10.34 10 9.68 10 9 C9.236875 8.896875 8.47375 8.79375 7.6875 8.6875 C4.80192188 7.94932885 3.73820183 7.37859197 2 5 C2 4.01 2 3.02 2 2 C1.34 2 0.68 2 0 2 C0 1.34 0 0.68 0 0 Z " fill="#4EC791" transform="translate(141,361)"/>
<path d="M0 0 C0 0.66 0 1.32 0 2 C0.66 2 1.32 2 2 2 C2 3.65 2 5.3 2 7 C3.32 7 4.64 7 6 7 C6 7.99 6 8.98 6 10 C3.625 9.375 3.625 9.375 1 8 C0.30899447 6.00827818 -0.35902703 4.00838196 -1 2 C-3.03243548 1.03122943 -3.03243548 1.03122943 -5 1 C-2 0 -2 0 0 0 Z " fill="#2CC27D" transform="translate(181,337)"/>
<path d="M0 0 C3.26460973 1.80412643 4.88929795 2.83394693 7 6 C5.02 6.33 3.04 6.66 1 7 C0.01 5.35 -0.98 3.7 -2 2 C-1.34 2 -0.68 2 0 2 C0 1.34 0 0.68 0 0 Z " fill="#2AC07C" transform="translate(404,63)"/>
<path d="M0 0 C1.3303125 0.4640625 1.3303125 0.4640625 2.6875 0.9375 C2.6875 1.2675 2.6875 1.5975 2.6875 1.9375 C-3.9375 2.0625 -3.9375 2.0625 -7.3125 0.9375 C-7.3125 1.5975 -7.3125 2.2575 -7.3125 2.9375 C-8.3025 2.6075 -9.2925 2.2775 -10.3125 1.9375 C-10.3125 0.9475 -10.3125 -0.0425 -10.3125 -1.0625 C-6.8252167 -2.80614165 -3.56808371 -1.14447968 0 0 Z " fill="#3EC58A" transform="translate(333.3125,21.0625)"/>
<path d="M0 0 C0.33 0 0.66 0 1 0 C0.67 2.31 0.34 4.62 0 7 C-0.66 7 -1.32 7 -2 7 C-2 7.66 -2 8.32 -2 9 C-2.66 9 -3.32 9 -4 9 C-4.33 9.66 -4.66 10.32 -5 11 C-5.33 9.02 -5.66 7.04 -6 5 C-5.34 5 -4.68 5 -4 5 C-3.67 4.34 -3.34 3.68 -3 3 C-2.01 3.33 -1.02 3.66 0 4 C-0.33 3.01 -0.66 2.02 -1 1 C-0.67 0.67 -0.34 0.34 0 0 Z " fill="#35C381" transform="translate(342,316)"/>
<path d="M0 0 C0 0.66 0 1.32 0 2 C-5.25157567 3.10559488 -10.65100508 3.54318537 -16 3 C-16.99 2.34 -17.98 1.68 -19 1 C-16.77100213 0.83109082 -14.54179338 0.66496313 -12.3125 0.5 C-10.45044922 0.36078125 -10.45044922 0.36078125 -8.55078125 0.21875 C-5.68500671 0.04220063 -2.86900043 -0.04388528 0 0 Z " fill="#0DB868" transform="translate(262,305)"/>
<path d="M0 0 C2 1.3125 2 1.3125 4 3 C4 3.99 4 4.98 4 6 C0.38026598 7.31626692 -2.09567131 8 -6 8 C-6 7.34 -6 6.68 -6 6 C-2.535 5.505 -2.535 5.505 1 5 C0.67 3.35 0.34 1.7 0 0 Z " fill="#47C188" transform="translate(332,168)"/>
<path d="M0 0 C4.13621084 3.3810038 7.81316569 6.66590534 11 11 C9.35 10.67 7.7 10.34 6 10 C5.67 9.01 5.34 8.02 5 7 C4.01 6.67 3.02 6.34 2 6 C2 5.01 2 4.02 2 3 C1.34 3 0.68 3 0 3 C0 2.01 0 1.02 0 0 Z " fill="#59CD9A" transform="translate(418,75)"/>
<path d="M0 0 C1.32 0 2.64 0 4 0 C4.33 1.98 4.66 3.96 5 6 C5.66 6 6.32 6 7 6 C7.33 7.65 7.66 9.3 8 11 C4.31993178 7.61831569 2.0214155 4.57478244 0 0 Z " fill="#56CA96" transform="translate(49,386)"/>
<path d="M0 0 C0 0.66 0 1.32 0 2 C-1.65002828 3.35386936 -3.3174387 4.68678142 -5 6 C-5.33 6.66 -5.66 7.32 -6 8 C-6.66 8 -7.32 8 -8 8 C-7.75 5.125 -7.75 5.125 -7 2 C-4.45285085 0.13209062 -3.19131 0 0 0 Z " fill="#3DC084" transform="translate(144,136)"/>
<path d="M0 0 C5.04424468 0.44508041 7.44443409 2.60980925 11 6 C11 6.66 11 7.32 11 8 C10.34 8 9.68 8 9 8 C9 7.34 9 6.68 9 6 C8.2575 5.7525 7.515 5.505 6.75 5.25 C3.79875938 3.90852699 2.15185026 2.39094474 0 0 Z " fill="#5CC898" transform="translate(334,119)"/>
<path d="M0 0 C1.98 0 3.96 0 6 0 C3.99771762 4.00456476 -2.01556554 6.08747146 -6 8 C-5.34 6.35 -4.68 4.7 -4 3 C-2.68 3 -1.36 3 0 3 C0 2.01 0 1.02 0 0 Z " fill="#61CC9A" transform="translate(165,116)"/>
<path d="M0 0 C3.96 0.33 7.92 0.66 12 1 C12.33 2.32 12.66 3.64 13 5 C8.15340923 4.40895235 4.39251833 3.02055843 0 1 C0 0.67 0 0.34 0 0 Z " fill="#50CC94" transform="translate(306,105)"/>
<path d="M0 0 C-11.52164009 3.44419134 -11.52164009 3.44419134 -17 3 C-14.52776237 0.52776237 -13.03193317 0.41990229 -9.625 -0.1875 C-8.66851562 -0.36667969 -7.71203125 -0.54585938 -6.7265625 -0.73046875 C-4.12689671 -0.98745577 -2.45299695 -0.81960325 0 0 Z " fill="#4BBE88" transform="translate(228,96)"/>
<path d="M0 0 C4.24348127 -0.36372697 6.62712264 0.37665094 10 3 C10.8125 5.1875 10.8125 5.1875 11 7 C6.89188572 5.55007731 3.53144334 3.54592427 0 1 C0 0.67 0 0.34 0 0 Z " fill="#4FC390" transform="translate(111,449)"/>
<path d="M0 0 C3.63 1.65 7.26 3.3 11 5 C10.34 5.66 9.68 6.32 9 7 C6.375 6.625 6.375 6.625 4 6 C4 5.34 4 4.68 4 4 C2.68 3.67 1.36 3.34 0 3 C0 2.01 0 1.02 0 0 Z " fill="#4CC68F" transform="translate(174,385)"/>
<path d="M0 0 C0.66 0 1.32 0 2 0 C1.67 1.32 1.34 2.64 1 4 C5.455 3.505 5.455 3.505 10 3 C10 3.66 10 4.32 10 5 C6.7 5.33 3.4 5.66 0 6 C-0.38218767 4.34385343 -0.71395102 2.67542976 -1 1 C-0.67 0.67 -0.34 0.34 0 0 Z " fill="#30BD7B" transform="translate(96,342)"/>
<path d="M0 0 C3.53600465 1.91135386 5.78972846 3.62642766 8 7 C5.6875 7.3125 5.6875 7.3125 3 7 C1.18116991 4.6167054 0 3.04181663 0 0 Z " fill="#3BC984" transform="translate(367,236)"/>
<path d="M0 0 C5.6383837 1.31125202 7.85405343 3.328746 11 8 C10.67 8.99 10.34 9.98 10 11 C8.14453125 8.70507812 8.14453125 8.70507812 6.2890625 6.41015625 C5.0333609 4.86733563 5.0333609 4.86733563 3 4 C3 3.34 3 2.68 3 2 C2.01 1.67 1.02 1.34 0 1 C0 0.67 0 0.34 0 0 Z " fill="#5FC897" transform="translate(353,134)"/>
<path d="M0 0 C0.66 1.32 1.32 2.64 2 4 C-0.8125 5.5625 -0.8125 5.5625 -4 7 C-4.99 6.67 -5.98 6.34 -7 6 C-5.625 4.5 -5.625 4.5 -4 3 C-3.34 3 -2.68 3 -2 3 C-2 2.34 -2 1.68 -2 1 C-1.34 0.67 -0.68 0.34 0 0 Z " fill="#4AC98F" transform="translate(93,64)"/>
<path d="M0 0 C0 0.66 0 1.32 0 2 C-1.32 2 -2.64 2 -4 2 C-4 2.66 -4 3.32 -4 4 C-7.63 4 -11.26 4 -15 4 C-15 3.67 -15 3.34 -15 3 C-12.87562952 2.49733206 -10.75048274 1.9979439 -8.625 1.5 C-7.44164062 1.2215625 -6.25828125 0.943125 -5.0390625 0.65625 C-2 0 -2 0 0 0 Z " fill="#54C792" transform="translate(196,13)"/>
<path d="M0 0 C-0.66 0.66 -1.32 1.32 -2 2 C-2.99 2 -3.98 2 -5 2 C-5 2.66 -5 3.32 -5 4 C-6.98 4.66 -8.96 5.32 -11 6 C-11 5.34 -11 4.68 -11 4 C-10.34 4 -9.68 4 -9 4 C-9 3.01 -9 2.02 -9 1 C-5.92677456 0.08941469 -3.19902639 -0.08886184 0 0 Z " fill="#50C390" transform="translate(373,459)"/>
<path d="M0 0 C0.99 0.33 1.98 0.66 3 1 C3 2.65 3 4.3 3 6 C3.99 6.33 4.98 6.66 6 7 C5.01 7.495 5.01 7.495 4 8 C3.34 7.67 2.68 7.34 2 7 C2 6.34 2 5.68 2 5 C0.68 4.34 -0.64 3.68 -2 3 C-2 2.34 -2 1.68 -2 1 C-1.34 0.67 -0.68 0.34 0 0 Z " fill="#3DC384" transform="translate(94,432)"/>
<path d="M0 0 C0.99 0.33 1.98 0.66 3 1 C2.5504955 2.31554985 2.09010284 3.62738358 1.625 4.9375 C1.36976563 5.66839844 1.11453125 6.39929688 0.8515625 7.15234375 C0 9 0 9 -2 10 C-1.85950482 8.52031676 -1.71245174 7.04125484 -1.5625 5.5625 C-1.48128906 4.73878906 -1.40007812 3.91507812 -1.31640625 3.06640625 C-1 1 -1 1 0 0 Z " fill="#3DBF87" transform="translate(474,336)"/>
<path d="M0 0 C1.34173403 0.92543709 2.67320159 1.86577405 4 2.8125 C5.11375 3.59560547 5.11375 3.59560547 6.25 4.39453125 C6.8275 4.92433594 7.405 5.45414062 8 6 C8 6.99 8 7.98 8 9 C7.01 8.67 6.02 8.34 5 8 C5 7.34 5 6.68 5 6 C3.35 5.67 1.7 5.34 0 5 C0 3.35 0 1.7 0 0 Z " fill="#50C991" transform="translate(209,287)"/>
<path d="M0 0 C1.40907283 2.81814566 0.50872691 4.17277204 -0.4375 7.125 C-0.72496094 8.03507813 -1.01242188 8.94515625 -1.30859375 9.8828125 C-1.53675781 10.58148438 -1.76492187 11.28015625 -2 12 C-2.66 12 -3.32 12 -4 12 C-4.33 12.66 -4.66 13.32 -5 14 C-4.3288162 9.70442365 -3.19562682 3.19562682 0 0 Z " fill="#56C58F" transform="translate(27,153)"/>
<path d="M0 0 C3.36720387 1.39332574 4.9859524 2.9789286 7 6 C4.69 5.67 2.38 5.34 0 5 C0 3.35 0 1.7 0 0 Z " fill="#4AC88D" transform="translate(411,69)"/>
<path d="M0 0 C1.98 0.66 3.96 1.32 6 2 C6.33 3.98 6.66 5.96 7 8 C5.8274869 7.04882866 4.66212985 6.08882991 3.5 5.125 C2.8503125 4.59132813 2.200625 4.05765625 1.53125 3.5078125 C1.0259375 3.01023437 0.520625 2.51265625 0 2 C0 1.34 0 0.68 0 0 Z " fill="#48C68F" transform="translate(69,411)"/>
<path d="M0 0 C2.64 0 5.28 0 8 0 C8 0.66 8 1.32 8 2 C10.31 2 12.62 2 15 2 C15 2.33 15 2.66 15 3 C4.44191344 3.3690205 4.44191344 3.3690205 0 1 C0 0.67 0 0.34 0 0 Z " fill="#3ABD83" transform="translate(232,363)"/>
<path d="M0 0 C1.98 0.66 3.96 1.32 6 2 C5.67 3.32 5.34 4.64 5 6 C4.01 5.34 3.02 4.68 2 4 C1.34 5.32 0.68 6.64 0 8 C0 5.36 0 2.72 0 0 Z " fill="#5ACB99" transform="translate(121,252)"/>
<path d="M0 0 C3.14191424 1.53604696 6.08596738 3.05731159 9 5 C9 5.66 9 6.32 9 7 C9.66 7.33 10.32 7.66 11 8 C10.01 8.495 10.01 8.495 9 9 C8.401875 8.360625 7.80375 7.72125 7.1875 7.0625 C5.09189663 4.79689611 5.09189663 4.79689611 2 4 C2 3.34 2 2.68 2 2 C1.34 2 0.68 2 0 2 C0 1.34 0 0.68 0 0 Z " fill="#66CFA0" transform="translate(314,153)"/>
<path d="M0 0 C0.78375 0.04125 1.5675 0.0825 2.375 0.125 C1.12953595 3.86139216 -0.25904953 4.31256513 -3.625 6.125 C-4.25 4.25 -4.25 4.25 -4.625 2.125 C-2.625 0.125 -2.625 0.125 0 0 Z " fill="#3EC488" transform="translate(413.625,425.875)"/>
<path d="M0 0 C0.66 0 1.32 0 2 0 C1.45773019 3.79588866 -0.20127563 5.47211993 -3 8 C-3.33 6.02 -3.66 4.04 -4 2 C-2.68 2 -1.36 2 0 2 C0 1.34 0 0.68 0 0 Z " fill="#3DC386" transform="translate(436,401)"/>
<path d="M0 0 C3.3 0.99 6.6 1.98 10 3 C10 3.33 10 3.66 10 4 C6.6875 4.6875 6.6875 4.6875 3 5 C1.0625 3.6875 1.0625 3.6875 0 2 C0 1.34 0 0.68 0 0 Z " fill="#48C68E" transform="translate(187,392)"/>
<path d="M0 0 C0.66 0 1.32 0 2 0 C1.3125 2.375 1.3125 2.375 0 5 C-2.625 6.3125 -2.625 6.3125 -5 7 C-5.66 6.34 -6.32 5.68 -7 5 C-2.25 2 -2.25 2 0 2 C0 1.34 0 0.68 0 0 Z " fill="#4FC990" transform="translate(343,373)"/>
<path d="M0 0 C1.32 0.33 2.64 0.66 4 1 C4 1.66 4 2.32 4 3 C4.66 3 5.32 3 6 3 C6 3.66 6 4.32 6 5 C7.32 5 8.64 5 10 5 C10.33 6.32 10.66 7.64 11 9 C9 8 7 7 5 6 C5 5.34 5 4.68 5 4 C4.34 4 3.68 4 3 4 C3 3.34 3 2.68 3 2 C2.01 1.67 1.02 1.34 0 1 C0 0.67 0 0.34 0 0 Z " fill="#54C595" transform="translate(170,334)"/>
<path d="M0 0 C0.99 0.33 1.98 0.66 3 1 C-0.465 3.97 -0.465 3.97 -4 7 C-4.33 5.35 -4.66 3.7 -5 2 C-4.34 1.67 -3.68 1.34 -3 1 C-2.67 1.33 -2.34 1.66 -2 2 C-1.34 1.34 -0.68 0.68 0 0 Z " fill="#29BC79" transform="translate(333,328)"/>
<path d="M0 0 C0 0.66 0 1.32 0 2 C-1.65 2 -3.3 2 -5 2 C-4.67 3.65 -4.34 5.3 -4 7 C-6 5.6875 -6 5.6875 -8 4 C-8 3.01 -8 2.02 -8 1 C-5.10765685 0.17361624 -3.11257569 0 0 0 Z " fill="#66CC9F" transform="translate(174,327)"/>
<path d="M0 0 C0.66 0.33 1.32 0.66 2 1 C-0.23407889 4.35111834 -1.26215824 5.81553956 -5.25 6.8125 C-6.61125 6.9053125 -6.61125 6.9053125 -8 7 C-8 6.34 -8 5.68 -8 5 C-6.20963542 3.99088542 -4.41927083 2.98177083 -2.62890625 1.97265625 C-1.02121854 1.1027487 -1.02121854 1.1027487 0 0 Z " fill="#65CE9D" transform="translate(282,293)"/>
<path d="M0 0 C0 0.99 0 1.98 0 3 C-1.98 3.99 -1.98 3.99 -4 5 C-5.32 3.35 -6.64 1.7 -8 0 C-5.13822943 -1.43088528 -3.06624227 -0.59991697 0 0 Z " fill="#19BD71" transform="translate(336,114)"/>
<path d="M0 0 C2.95929119 2.75520215 5.03681826 5.46627288 7 9 C6.01 9.495 6.01 9.495 5 10 C5 9.34 5 8.68 5 8 C4.34 8 3.68 8 3 8 C3 7.34 3 6.68 3 6 C2.01 5.67 1.02 5.34 0 5 C0 3.35 0 1.7 0 0 Z " fill="#37C082" transform="translate(444,105)"/>
<path d="M0 0 C2.96404505 2.80804268 5.44499019 5.18315774 7 9 C5.35 8.67 3.7 8.34 2 8 C2 6.68 2 5.36 2 4 C1.34 4 0.68 4 0 4 C0 2.68 0 1.36 0 0 Z " fill="#49C18B" transform="translate(435,93)"/>
<path d="M0 0 C2.475 0.495 2.475 0.495 5 1 C5 1.66 5 2.32 5 3 C7.97 3.495 7.97 3.495 11 4 C11.33 4.99 11.66 5.98 12 7 C7.69235185 5.43358249 3.93828536 3.31663844 0 1 C0 0.67 0 0.34 0 0 Z " fill="#6ACE9D" transform="translate(131,461)"/>
<path d="M0 0 C0.66 0 1.32 0 2 0 C2 0.66 2 1.32 2 2 C2.639375 2.103125 3.27875 2.20625 3.9375 2.3125 C4.618125 2.539375 5.29875 2.76625 6 3 C6.33 3.99 6.66 4.98 7 6 C7.66 6.66 8.32 7.32 9 8 C9 8.66 9 9.32 9 10 C8.34 10 7.68 10 7 10 C3 5.52941176 3 5.52941176 3 3 C2.34 3 1.68 3 1 3 C0.67 2.01 0.34 1.02 0 0 Z " fill="#66CA9B" transform="translate(60,401)"/>
<path d="M0 0 C2.4375 0.75 2.4375 0.75 5 2 C5.8125 4.125 5.8125 4.125 6 6 C6.66 6 7.32 6 8 6 C8.33 6.99 8.66 7.98 9 9 C8.34 9 7.68 9 7 9 C7 8.34 7 7.68 7 7 C6.01 6.67 5.02 6.34 4 6 C4 5.34 4 4.68 4 4 C3.01 3.67 2.02 3.34 1 3 C0.67 2.01 0.34 1.02 0 0 Z " fill="#71CEA2" transform="translate(153,284)"/>
<path d="M0 0 C0.99 0.33 1.98 0.66 3 1 C3.33 2.65 3.66 4.3 4 6 C3.01 6.495 3.01 6.495 2 7 C2 6.34 2 5.68 2 5 C1.01 5 0.02 5 -1 5 C-0.67 3.35 -0.34 1.7 0 0 Z " fill="#3CC784" transform="translate(197,270)"/>
<path d="M0 0 C0.33 0 0.66 0 1 0 C1 3.3 1 6.6 1 10 C0.01 10.33 -0.98 10.66 -2 11 C-1 3.57142857 -1 3.57142857 0 0 Z " fill="#4AC98E" transform="translate(18,175)"/>
<path d="M0 0 C0.66 0.33 1.32 0.66 2 1 C2 1.99 2 2.98 2 4 C0 5.6875 0 5.6875 -2 7 C-2.66 6.67 -3.32 6.34 -4 6 C-2.25 1.125 -2.25 1.125 0 0 Z " fill="#35C582" transform="translate(186,152)"/>
<path d="M0 0 C1.46067199 0.45082469 2.91848032 0.91093537 4.375 1.375 C5.18710937 1.63023438 5.99921875 1.88546875 6.8359375 2.1484375 C9 3 9 3 11 5 C10.01 5.33 9.02 5.66 8 6 C8 5.34 8 4.68 8 4 C5.69 3.67 3.38 3.34 1 3 C0.67 2.01 0.34 1.02 0 0 Z " fill="#6AD1A3" transform="translate(348,28)"/>
<path d="M0 0 C1.62418745 -0.08090971 3.24951745 -0.13914995 4.875 -0.1875 C5.77992188 -0.22230469 6.68484375 -0.25710938 7.6171875 -0.29296875 C8.79667969 -0.14794922 8.79667969 -0.14794922 10 0 C10.66 0.99 11.32 1.98 12 3 C7.97007218 2.44687265 3.97977076 1.8441938 0 1 C0 0.67 0 0.34 0 0 Z " fill="#58C691" transform="translate(182,483)"/>
<path d="M0 0 C2.475 0.99 2.475 0.99 5 2 C5.33 4.64 5.66 7.28 6 10 C3.25722422 6.80009492 1.3697164 3.99500618 0 0 Z " fill="#57CA93" transform="translate(37,367)"/>
<path d="M0 0 C0 0.99 0 1.98 0 3 C-0.66 3 -1.32 3 -2 3 C-2.33 4.32 -2.66 5.64 -3 7 C-4.65 7.33 -6.3 7.66 -8 8 C-3.375 2.25 -3.375 2.25 0 0 Z " fill="#63CC9D" transform="translate(359,360)"/>
<path d="M0 0 C0.66 0 1.32 0 2 0 C1.71682074 1.60568666 1.42312209 3.20952047 1.125 4.8125 C0.96257812 5.70582031 0.80015625 6.59914063 0.6328125 7.51953125 C0 10 0 10 -2 13 C-2.19294408 8.17639811 -1.75747614 4.50353262 0 0 Z " fill="#3CBD85" transform="translate(117,267)"/>
<path d="M0 0 C2.5 1.375 2.5 1.375 5 3 C5 3.66 5 4.32 5 5 C5.66 5 6.32 5 7 5 C6.67 5.66 6.34 6.32 6 7 C4.02 6.34 2.04 5.68 0 5 C0 3.35 0 1.7 0 0 Z " fill="#44C28B" transform="translate(320,192)"/>
<path d="M0 0 C0.75 1.6875 0.75 1.6875 1 4 C-0.8125 6.75 -0.8125 6.75 -3 9 C-3.66 9 -4.32 9 -5 9 C-3.7508258 5.54074837 -2.32472205 2.85306797 0 0 Z " fill="#69CFA0" transform="translate(159,176)"/>
<path d="M0 0 C3.14958831 3.42346555 3.56179109 6.44262737 4 11 C3.34 9.68 2.68 8.36 2 7 C1.34 7 0.68 7 0 7 C-1.125 2.25 -1.125 2.25 0 0 Z " fill="#57C994" transform="translate(475,160)"/>
<path d="M0 0 C1.98 0 3.96 0 6 0 C4.66666667 0.66666667 3.33333333 1.33333333 2 2 C0.453125 2.804375 0.453125 2.804375 -1.125 3.625 C-4 5 -4 5 -6 5 C-6 4.01 -6 3.02 -6 2 C-4.02 2 -2.04 2 0 2 C0 1.34 0 0.68 0 0 Z " fill="#5AC997" transform="translate(186,106)"/>
<path d="M0 0 C2.97 0 5.94 0 9 0 C9.33 1.32 9.66 2.64 10 4 C6.7 3.01 3.4 2.02 0 1 C0 0.67 0 0.34 0 0 Z " fill="#5DCC9A" transform="translate(295,101)"/>
<path d="M0 0 C2.97 0 5.94 0 9 0 C6.7448078 2.2551922 4.9952413 2.97723468 2 4 C1.01 4 0.02 4 -1 4 C-0.67 2.68 -0.34 1.36 0 0 Z " fill="#55CC97" transform="translate(291,355)"/>
<path d="M0 0 C1 3 1 3 -0.25 6.5625 C-2 10 -2 10 -5 12 C-3.68938409 7.76570244 -2.05643741 3.92592596 0 0 Z " fill="#6ED1A3" transform="translate(391,313)"/>
<path d="M0 0 C1.65 0 3.3 0 5 0 C5.33 1.98 5.66 3.96 6 6 C3.97945196 4.35830472 1.97956942 2.69088222 0 1 C0 0.67 0 0.34 0 0 Z " fill="#41C988" transform="translate(181,313)"/>
<path d="M0 0 C0.33 1.32 0.66 2.64 1 4 C-0.8125 5.5625 -0.8125 5.5625 -3 7 C-3.99 6.67 -4.98 6.34 -6 6 C-4.625 4.5 -4.625 4.5 -3 3 C-2.34 3 -1.68 3 -1 3 C-0.67 2.01 -0.34 1.02 0 0 Z " fill="#44C98D" transform="translate(290,286)"/>
<path d="M0 0 C0.99 0.33 1.98 0.66 3 1 C3 1.66 3 2.32 3 3 C3.61875 3.268125 4.2375 3.53625 4.875 3.8125 C7 5 7 5 9 8 C7.35 7.67 5.7 7.34 4 7 C4 6.01 4 5.02 4 4 C3.34 4 2.68 4 2 4 C2 3.34 2 2.68 2 2 C1.34 2 0.68 2 0 2 C0 1.34 0 0.68 0 0 Z " fill="#6ACCA3" transform="translate(350,220)"/>
<path d="M0 0 C0.33 0 0.66 0 1 0 C0.67 3.3 0.34 6.6 0 10 C-1.32 9.67 -2.64 9.34 -4 9 C-3.34 9 -2.68 9 -2 9 C-1.855625 8.071875 -1.71125 7.14375 -1.5625 6.1875 C-1 3 -1 3 0 0 Z " fill="#6CCFA6" transform="translate(141,207)"/>
<path d="M0 0 C0.66 0 1.32 0 2 0 C1.50168276 3.68754757 0.89932357 5.60490662 -2 8 C-2.625 5.625 -2.625 5.625 -3 3 C-2 2 -1 1 0 0 Z " fill="#40C48A" transform="translate(124,154)"/>
<path d="M0 0 C0.625 1.875 0.625 1.875 1 4 C-1 6 -1 6 -3.625 6.125 C-4.40875 6.08375 -5.1925 6.0425 -6 6 C-4 4 -2 2 0 0 Z " fill="#56CC94" transform="translate(100,58)"/>
<path d="M0 0 C-1.14018002 3.42054006 -1.92458518 4.2426201 -5 6 C-7.13671875 5.578125 -7.13671875 5.578125 -9 5 C-7.87926138 4.16094435 -6.75325453 3.32892169 -5.625 2.5 C-4.99851562 2.0359375 -4.37203125 1.571875 -3.7265625 1.09375 C-2 0 -2 0 0 0 Z " fill="#69CB9B" transform="translate(110,52)"/>
<path d="M0 0 C1.32 0.66 2.64 1.32 4 2 C2.625 4 2.625 4 1 6 C0.34 6 -0.32 6 -1 6 C-1.625 4.125 -1.625 4.125 -2 2 C-1.34 1.34 -0.68 0.68 0 0 Z " fill="#41C68A" transform="translate(427,410)"/>
<path d="M0 0 C0 0.99 0 1.98 0 3 C-3.83887763 4.48320272 -6.06204091 5.22419163 -10 4 C-8.71086513 3.32845067 -7.41859796 2.66291141 -6.125 2 C-5.40570313 1.62875 -4.68640625 1.2575 -3.9453125 0.875 C-2 0 -2 0 0 0 Z " fill="#64CF9F" transform="translate(325,386)"/>
<path d="M0 0 C1 3 1 3 0.22265625 4.82421875 C-0.8515625 6.54947917 -1.92578125 8.27473958 -3 10 C-3.93423645 6.98968256 -4.04449911 6.13349732 -3 3 C-2.34 3 -1.68 3 -1 3 C-0.67 2.01 -0.34 1.02 0 0 Z " fill="#57C795" transform="translate(460,368)"/>
<path d="M0 0 C-0.33 0.66 -0.66 1.32 -1 2 C-3.97 2 -6.94 2 -10 2 C-6.19832777 -0.53444815 -4.31588991 -1.33941411 0 0 Z " fill="#35BD83" transform="translate(264,364)"/>
<path d="M0 0 C0.66 0 1.32 0 2 0 C3.42258812 3.82320557 4.24042276 6.91281305 4 11 C1.55160412 7.32740617 0 4.45351799 0 0 Z " fill="#5ACC9B" transform="translate(21,330)"/>
<path d="M0 0 C0.99 0.33 1.98 0.66 3 1 C1.68 3.64 0.36 6.28 -1 9 C-2.07349791 4.70600835 -1.79682816 3.80504787 0 0 Z " fill="#6BCFA0" transform="translate(355,294)"/>
<path d="M0 0 C0.99 0 1.98 0 3 0 C1.7874262 3.72433382 0.49140021 7.37802806 -1 11 C-1.33 11 -1.66 11 -2 11 C-2 9.02 -2 7.04 -2 5 C-1.34 5 -0.68 5 0 5 C0 3.35 0 1.7 0 0 Z " fill="#73CEA3" transform="translate(199,224)"/>
<path d="M0 0 C1.98 1.65 3.96 3.3 6 5 C5.67 5.66 5.34 6.32 5 7 C3.68 6.67 2.36 6.34 1 6 C0.67 4.02 0.34 2.04 0 0 Z " fill="#4BCC94" transform="translate(328,199)"/>
<path d="M0 0 C0.33 0.66 0.66 1.32 1 2 C-0.25 5.0625 -0.25 5.0625 -2 8 C-2.99 8.33 -3.98 8.66 -5 9 C-3.7508258 5.54074837 -2.32472205 2.85306797 0 0 Z " fill="#7BD5AA" transform="translate(48,114)"/>
<path d="M0 0 C2.64 0.33 5.28 0.66 8 1 C8.33 1.99 8.66 2.98 9 4 C3.46153846 3.38461538 3.46153846 3.38461538 1.125 1.4375 C0.75375 0.963125 0.3825 0.48875 0 0 Z " fill="#57C793" transform="translate(144,468)"/>
<path d="M0 0 C0.66 0.99 1.32 1.98 2 3 C-1 5 -1 5 -3.1875 4.625 C-3.785625 4.41875 -4.38375 4.2125 -5 4 C-3.35 2.68 -1.7 1.36 0 0 Z " fill="#50CB93" transform="translate(350,368)"/>
<path d="M0 0 C-0.33 0.66 -0.66 1.32 -1 2 C-3.32156597 2.40729228 -5.6568787 2.74438677 -8 3 C-8.33 2.34 -8.66 1.68 -9 1 C-2.25 -1.125 -2.25 -1.125 0 0 Z " fill="#41C38B" transform="translate(114,343)"/>
<path d="M0 0 C0.66 0 1.32 0 2 0 C3.625 2.5 3.625 2.5 5 5 C4.01 5.33 3.02 5.66 2 6 C1.01 5.01 0.02 4.02 -1 3 C-0.67 2.01 -0.34 1.02 0 0 Z " fill="#35C381" transform="translate(362,231)"/>
<path d="M0 0 C0 0.99 0 1.98 0 3 C-4.455 3.495 -4.455 3.495 -9 4 C-6.10130984 1.70103884 -3.84906588 0 0 0 Z " fill="#53CC93" transform="translate(207,142)"/>
<path d="M0 0 C2 2 2 2 2 5 C2.66 5 3.32 5 4 5 C4.33 6.32 4.66 7.64 5 9 C2 8 2 8 0 5 C-0.125 2.3125 -0.125 2.3125 0 0 Z " fill="#56C896" transform="translate(459,127)"/>
<path d="M0 0 C0.33 1.32 0.66 2.64 1 4 C0.01 4 -0.98 4 -2 4 C-2.66 5.32 -3.32 6.64 -4 8 C-4.66 7.67 -5.32 7.34 -6 7 C-4.02 4.69 -2.04 2.38 0 0 Z " fill="#61CC9A" transform="translate(64,93)"/>
</svg>